%TF.GenerationSoftware,KiCad,Pcbnew,5.1.6*%
%TF.CreationDate,2020-06-19T21:58:21+02:00*%
%TF.ProjectId,laptop2usb,6c617074-6f70-4327-9573-622e6b696361,rev?*%
%TF.SameCoordinates,Original*%
%TF.FileFunction,Paste,Top*%
%TF.FilePolarity,Positive*%
%FSLAX46Y46*%
G04 Gerber Fmt 4.6, Leading zero omitted, Abs format (unit mm)*
G04 Created by KiCad (PCBNEW 5.1.6) date 2020-06-19 21:58:21*
%MOMM*%
%LPD*%
G01*
G04 APERTURE LIST*
%ADD10R,3.175000X4.950000*%
%ADD11R,3.910000X3.810000*%
%ADD12R,0.610000X1.020000*%
%ADD13R,0.610000X1.270000*%
%ADD14R,3.500000X2.300000*%
G04 APERTURE END LIST*
%TO.C,R4*%
G36*
G01*
X121250000Y-92950001D02*
X121250000Y-92049999D01*
G75*
G02*
X121499999Y-91800000I249999J0D01*
G01*
X122150001Y-91800000D01*
G75*
G02*
X122400000Y-92049999I0J-249999D01*
G01*
X122400000Y-92950001D01*
G75*
G02*
X122150001Y-93200000I-249999J0D01*
G01*
X121499999Y-93200000D01*
G75*
G02*
X121250000Y-92950001I0J249999D01*
G01*
G37*
G36*
G01*
X119200000Y-92950001D02*
X119200000Y-92049999D01*
G75*
G02*
X119449999Y-91800000I249999J0D01*
G01*
X120100001Y-91800000D01*
G75*
G02*
X120350000Y-92049999I0J-249999D01*
G01*
X120350000Y-92950001D01*
G75*
G02*
X120100001Y-93200000I-249999J0D01*
G01*
X119449999Y-93200000D01*
G75*
G02*
X119200000Y-92950001I0J249999D01*
G01*
G37*
%TD*%
%TO.C,C3*%
G36*
G01*
X92850000Y-119737500D02*
X92850000Y-119262500D01*
G75*
G02*
X93087500Y-119025000I237500J0D01*
G01*
X93662500Y-119025000D01*
G75*
G02*
X93900000Y-119262500I0J-237500D01*
G01*
X93900000Y-119737500D01*
G75*
G02*
X93662500Y-119975000I-237500J0D01*
G01*
X93087500Y-119975000D01*
G75*
G02*
X92850000Y-119737500I0J237500D01*
G01*
G37*
G36*
G01*
X91100000Y-119737500D02*
X91100000Y-119262500D01*
G75*
G02*
X91337500Y-119025000I237500J0D01*
G01*
X91912500Y-119025000D01*
G75*
G02*
X92150000Y-119262500I0J-237500D01*
G01*
X92150000Y-119737500D01*
G75*
G02*
X91912500Y-119975000I-237500J0D01*
G01*
X91337500Y-119975000D01*
G75*
G02*
X91100000Y-119737500I0J237500D01*
G01*
G37*
%TD*%
%TO.C,C13*%
G36*
G01*
X111525000Y-104262500D02*
X109375000Y-104262500D01*
G75*
G02*
X109125000Y-104012500I0J250000D01*
G01*
X109125000Y-103087500D01*
G75*
G02*
X109375000Y-102837500I250000J0D01*
G01*
X111525000Y-102837500D01*
G75*
G02*
X111775000Y-103087500I0J-250000D01*
G01*
X111775000Y-104012500D01*
G75*
G02*
X111525000Y-104262500I-250000J0D01*
G01*
G37*
G36*
G01*
X111525000Y-107237500D02*
X109375000Y-107237500D01*
G75*
G02*
X109125000Y-106987500I0J250000D01*
G01*
X109125000Y-106062500D01*
G75*
G02*
X109375000Y-105812500I250000J0D01*
G01*
X111525000Y-105812500D01*
G75*
G02*
X111775000Y-106062500I0J-250000D01*
G01*
X111775000Y-106987500D01*
G75*
G02*
X111525000Y-107237500I-250000J0D01*
G01*
G37*
%TD*%
D10*
%TO.C,L1*%
X123757500Y-107750000D03*
X114742500Y-107750000D03*
%TD*%
%TO.C,U1*%
G36*
G01*
X111320000Y-95915000D02*
X111320000Y-95505000D01*
G75*
G02*
X111500000Y-95325000I180000J0D01*
G01*
X111860000Y-95325000D01*
G75*
G02*
X112040000Y-95505000I0J-180000D01*
G01*
X112040000Y-95915000D01*
G75*
G02*
X111860000Y-96095000I-180000J0D01*
G01*
X111500000Y-96095000D01*
G75*
G02*
X111320000Y-95915000I0J180000D01*
G01*
G37*
G36*
G01*
X111320000Y-94995000D02*
X111320000Y-94585000D01*
G75*
G02*
X111500000Y-94405000I180000J0D01*
G01*
X111860000Y-94405000D01*
G75*
G02*
X112040000Y-94585000I0J-180000D01*
G01*
X112040000Y-94995000D01*
G75*
G02*
X111860000Y-95175000I-180000J0D01*
G01*
X111500000Y-95175000D01*
G75*
G02*
X111320000Y-94995000I0J180000D01*
G01*
G37*
G36*
G01*
X110460000Y-95915000D02*
X110460000Y-95505000D01*
G75*
G02*
X110640000Y-95325000I180000J0D01*
G01*
X111000000Y-95325000D01*
G75*
G02*
X111180000Y-95505000I0J-180000D01*
G01*
X111180000Y-95915000D01*
G75*
G02*
X111000000Y-96095000I-180000J0D01*
G01*
X110640000Y-96095000D01*
G75*
G02*
X110460000Y-95915000I0J180000D01*
G01*
G37*
G36*
G01*
X110460000Y-94995000D02*
X110460000Y-94585000D01*
G75*
G02*
X110640000Y-94405000I180000J0D01*
G01*
X111000000Y-94405000D01*
G75*
G02*
X111180000Y-94585000I0J-180000D01*
G01*
X111180000Y-94995000D01*
G75*
G02*
X111000000Y-95175000I-180000J0D01*
G01*
X110640000Y-95175000D01*
G75*
G02*
X110460000Y-94995000I0J180000D01*
G01*
G37*
G36*
G01*
X112700000Y-94375000D02*
X112700000Y-94175000D01*
G75*
G02*
X112800000Y-94075000I100000J0D01*
G01*
X114025000Y-94075000D01*
G75*
G02*
X114125000Y-94175000I0J-100000D01*
G01*
X114125000Y-94375000D01*
G75*
G02*
X114025000Y-94475000I-100000J0D01*
G01*
X112800000Y-94475000D01*
G75*
G02*
X112700000Y-94375000I0J100000D01*
G01*
G37*
G36*
G01*
X112700000Y-95025000D02*
X112700000Y-94825000D01*
G75*
G02*
X112800000Y-94725000I100000J0D01*
G01*
X114025000Y-94725000D01*
G75*
G02*
X114125000Y-94825000I0J-100000D01*
G01*
X114125000Y-95025000D01*
G75*
G02*
X114025000Y-95125000I-100000J0D01*
G01*
X112800000Y-95125000D01*
G75*
G02*
X112700000Y-95025000I0J100000D01*
G01*
G37*
G36*
G01*
X112700000Y-95675000D02*
X112700000Y-95475000D01*
G75*
G02*
X112800000Y-95375000I100000J0D01*
G01*
X114025000Y-95375000D01*
G75*
G02*
X114125000Y-95475000I0J-100000D01*
G01*
X114125000Y-95675000D01*
G75*
G02*
X114025000Y-95775000I-100000J0D01*
G01*
X112800000Y-95775000D01*
G75*
G02*
X112700000Y-95675000I0J100000D01*
G01*
G37*
G36*
G01*
X112700000Y-96325000D02*
X112700000Y-96125000D01*
G75*
G02*
X112800000Y-96025000I100000J0D01*
G01*
X114025000Y-96025000D01*
G75*
G02*
X114125000Y-96125000I0J-100000D01*
G01*
X114125000Y-96325000D01*
G75*
G02*
X114025000Y-96425000I-100000J0D01*
G01*
X112800000Y-96425000D01*
G75*
G02*
X112700000Y-96325000I0J100000D01*
G01*
G37*
G36*
G01*
X108375000Y-96325000D02*
X108375000Y-96125000D01*
G75*
G02*
X108475000Y-96025000I100000J0D01*
G01*
X109700000Y-96025000D01*
G75*
G02*
X109800000Y-96125000I0J-100000D01*
G01*
X109800000Y-96325000D01*
G75*
G02*
X109700000Y-96425000I-100000J0D01*
G01*
X108475000Y-96425000D01*
G75*
G02*
X108375000Y-96325000I0J100000D01*
G01*
G37*
G36*
G01*
X108375000Y-95675000D02*
X108375000Y-95475000D01*
G75*
G02*
X108475000Y-95375000I100000J0D01*
G01*
X109700000Y-95375000D01*
G75*
G02*
X109800000Y-95475000I0J-100000D01*
G01*
X109800000Y-95675000D01*
G75*
G02*
X109700000Y-95775000I-100000J0D01*
G01*
X108475000Y-95775000D01*
G75*
G02*
X108375000Y-95675000I0J100000D01*
G01*
G37*
G36*
G01*
X108375000Y-95025000D02*
X108375000Y-94825000D01*
G75*
G02*
X108475000Y-94725000I100000J0D01*
G01*
X109700000Y-94725000D01*
G75*
G02*
X109800000Y-94825000I0J-100000D01*
G01*
X109800000Y-95025000D01*
G75*
G02*
X109700000Y-95125000I-100000J0D01*
G01*
X108475000Y-95125000D01*
G75*
G02*
X108375000Y-95025000I0J100000D01*
G01*
G37*
G36*
G01*
X108375000Y-94375000D02*
X108375000Y-94175000D01*
G75*
G02*
X108475000Y-94075000I100000J0D01*
G01*
X109700000Y-94075000D01*
G75*
G02*
X109800000Y-94175000I0J-100000D01*
G01*
X109800000Y-94375000D01*
G75*
G02*
X109700000Y-94475000I-100000J0D01*
G01*
X108475000Y-94475000D01*
G75*
G02*
X108375000Y-94375000I0J100000D01*
G01*
G37*
%TD*%
%TO.C,R7*%
G36*
G01*
X60762500Y-99975000D02*
X61237500Y-99975000D01*
G75*
G02*
X61475000Y-100212500I0J-237500D01*
G01*
X61475000Y-100787500D01*
G75*
G02*
X61237500Y-101025000I-237500J0D01*
G01*
X60762500Y-101025000D01*
G75*
G02*
X60525000Y-100787500I0J237500D01*
G01*
X60525000Y-100212500D01*
G75*
G02*
X60762500Y-99975000I237500J0D01*
G01*
G37*
G36*
G01*
X60762500Y-98225000D02*
X61237500Y-98225000D01*
G75*
G02*
X61475000Y-98462500I0J-237500D01*
G01*
X61475000Y-99037500D01*
G75*
G02*
X61237500Y-99275000I-237500J0D01*
G01*
X60762500Y-99275000D01*
G75*
G02*
X60525000Y-99037500I0J237500D01*
G01*
X60525000Y-98462500D01*
G75*
G02*
X60762500Y-98225000I237500J0D01*
G01*
G37*
%TD*%
%TO.C,R6*%
G36*
G01*
X106512500Y-98975000D02*
X106987500Y-98975000D01*
G75*
G02*
X107225000Y-99212500I0J-237500D01*
G01*
X107225000Y-99787500D01*
G75*
G02*
X106987500Y-100025000I-237500J0D01*
G01*
X106512500Y-100025000D01*
G75*
G02*
X106275000Y-99787500I0J237500D01*
G01*
X106275000Y-99212500D01*
G75*
G02*
X106512500Y-98975000I237500J0D01*
G01*
G37*
G36*
G01*
X106512500Y-97225000D02*
X106987500Y-97225000D01*
G75*
G02*
X107225000Y-97462500I0J-237500D01*
G01*
X107225000Y-98037500D01*
G75*
G02*
X106987500Y-98275000I-237500J0D01*
G01*
X106512500Y-98275000D01*
G75*
G02*
X106275000Y-98037500I0J237500D01*
G01*
X106275000Y-97462500D01*
G75*
G02*
X106512500Y-97225000I237500J0D01*
G01*
G37*
%TD*%
%TO.C,R5*%
G36*
G01*
X106987500Y-102275000D02*
X106512500Y-102275000D01*
G75*
G02*
X106275000Y-102037500I0J237500D01*
G01*
X106275000Y-101462500D01*
G75*
G02*
X106512500Y-101225000I237500J0D01*
G01*
X106987500Y-101225000D01*
G75*
G02*
X107225000Y-101462500I0J-237500D01*
G01*
X107225000Y-102037500D01*
G75*
G02*
X106987500Y-102275000I-237500J0D01*
G01*
G37*
G36*
G01*
X106987500Y-104025000D02*
X106512500Y-104025000D01*
G75*
G02*
X106275000Y-103787500I0J237500D01*
G01*
X106275000Y-103212500D01*
G75*
G02*
X106512500Y-102975000I237500J0D01*
G01*
X106987500Y-102975000D01*
G75*
G02*
X107225000Y-103212500I0J-237500D01*
G01*
X107225000Y-103787500D01*
G75*
G02*
X106987500Y-104025000I-237500J0D01*
G01*
G37*
%TD*%
%TO.C,R3*%
G36*
G01*
X104512500Y-94975000D02*
X104987500Y-94975000D01*
G75*
G02*
X105225000Y-95212500I0J-237500D01*
G01*
X105225000Y-95787500D01*
G75*
G02*
X104987500Y-96025000I-237500J0D01*
G01*
X104512500Y-96025000D01*
G75*
G02*
X104275000Y-95787500I0J237500D01*
G01*
X104275000Y-95212500D01*
G75*
G02*
X104512500Y-94975000I237500J0D01*
G01*
G37*
G36*
G01*
X104512500Y-93225000D02*
X104987500Y-93225000D01*
G75*
G02*
X105225000Y-93462500I0J-237500D01*
G01*
X105225000Y-94037500D01*
G75*
G02*
X104987500Y-94275000I-237500J0D01*
G01*
X104512500Y-94275000D01*
G75*
G02*
X104275000Y-94037500I0J237500D01*
G01*
X104275000Y-93462500D01*
G75*
G02*
X104512500Y-93225000I237500J0D01*
G01*
G37*
%TD*%
%TO.C,R2*%
G36*
G01*
X102512500Y-94975000D02*
X102987500Y-94975000D01*
G75*
G02*
X103225000Y-95212500I0J-237500D01*
G01*
X103225000Y-95787500D01*
G75*
G02*
X102987500Y-96025000I-237500J0D01*
G01*
X102512500Y-96025000D01*
G75*
G02*
X102275000Y-95787500I0J237500D01*
G01*
X102275000Y-95212500D01*
G75*
G02*
X102512500Y-94975000I237500J0D01*
G01*
G37*
G36*
G01*
X102512500Y-93225000D02*
X102987500Y-93225000D01*
G75*
G02*
X103225000Y-93462500I0J-237500D01*
G01*
X103225000Y-94037500D01*
G75*
G02*
X102987500Y-94275000I-237500J0D01*
G01*
X102512500Y-94275000D01*
G75*
G02*
X102275000Y-94037500I0J237500D01*
G01*
X102275000Y-93462500D01*
G75*
G02*
X102512500Y-93225000I237500J0D01*
G01*
G37*
%TD*%
%TO.C,R1*%
G36*
G01*
X61237500Y-103275000D02*
X60762500Y-103275000D01*
G75*
G02*
X60525000Y-103037500I0J237500D01*
G01*
X60525000Y-102462500D01*
G75*
G02*
X60762500Y-102225000I237500J0D01*
G01*
X61237500Y-102225000D01*
G75*
G02*
X61475000Y-102462500I0J-237500D01*
G01*
X61475000Y-103037500D01*
G75*
G02*
X61237500Y-103275000I-237500J0D01*
G01*
G37*
G36*
G01*
X61237500Y-105025000D02*
X60762500Y-105025000D01*
G75*
G02*
X60525000Y-104787500I0J237500D01*
G01*
X60525000Y-104212500D01*
G75*
G02*
X60762500Y-103975000I237500J0D01*
G01*
X61237500Y-103975000D01*
G75*
G02*
X61475000Y-104212500I0J-237500D01*
G01*
X61475000Y-104787500D01*
G75*
G02*
X61237500Y-105025000I-237500J0D01*
G01*
G37*
%TD*%
D11*
%TO.C,Q1*%
X121250000Y-99140000D03*
D12*
X123155000Y-101245000D03*
X121885000Y-101245000D03*
X120615000Y-101245000D03*
X119345000Y-101245000D03*
D13*
X119345000Y-95780000D03*
X120615000Y-95780000D03*
X121885000Y-95780000D03*
X123155000Y-95780000D03*
%TD*%
%TO.C,F9*%
G36*
G01*
X171950000Y-96475000D02*
X171950000Y-91525000D01*
G75*
G02*
X172200000Y-91275000I250000J0D01*
G01*
X173800000Y-91275000D01*
G75*
G02*
X174050000Y-91525000I0J-250000D01*
G01*
X174050000Y-96475000D01*
G75*
G02*
X173800000Y-96725000I-250000J0D01*
G01*
X172200000Y-96725000D01*
G75*
G02*
X171950000Y-96475000I0J250000D01*
G01*
G37*
G36*
G01*
X165000000Y-96475000D02*
X165000000Y-91525000D01*
G75*
G02*
X165250000Y-91275000I250000J0D01*
G01*
X166850000Y-91275000D01*
G75*
G02*
X167100000Y-91525000I0J-250000D01*
G01*
X167100000Y-96475000D01*
G75*
G02*
X166850000Y-96725000I-250000J0D01*
G01*
X165250000Y-96725000D01*
G75*
G02*
X165000000Y-96475000I0J250000D01*
G01*
G37*
%TD*%
%TO.C,F8*%
G36*
G01*
X171950000Y-103475000D02*
X171950000Y-98525000D01*
G75*
G02*
X172200000Y-98275000I250000J0D01*
G01*
X173800000Y-98275000D01*
G75*
G02*
X174050000Y-98525000I0J-250000D01*
G01*
X174050000Y-103475000D01*
G75*
G02*
X173800000Y-103725000I-250000J0D01*
G01*
X172200000Y-103725000D01*
G75*
G02*
X171950000Y-103475000I0J250000D01*
G01*
G37*
G36*
G01*
X165000000Y-103475000D02*
X165000000Y-98525000D01*
G75*
G02*
X165250000Y-98275000I250000J0D01*
G01*
X166850000Y-98275000D01*
G75*
G02*
X167100000Y-98525000I0J-250000D01*
G01*
X167100000Y-103475000D01*
G75*
G02*
X166850000Y-103725000I-250000J0D01*
G01*
X165250000Y-103725000D01*
G75*
G02*
X165000000Y-103475000I0J250000D01*
G01*
G37*
%TD*%
%TO.C,F7*%
G36*
G01*
X167100000Y-105525000D02*
X167100000Y-110475000D01*
G75*
G02*
X166850000Y-110725000I-250000J0D01*
G01*
X165250000Y-110725000D01*
G75*
G02*
X165000000Y-110475000I0J250000D01*
G01*
X165000000Y-105525000D01*
G75*
G02*
X165250000Y-105275000I250000J0D01*
G01*
X166850000Y-105275000D01*
G75*
G02*
X167100000Y-105525000I0J-250000D01*
G01*
G37*
G36*
G01*
X174050000Y-105525000D02*
X174050000Y-110475000D01*
G75*
G02*
X173800000Y-110725000I-250000J0D01*
G01*
X172200000Y-110725000D01*
G75*
G02*
X171950000Y-110475000I0J250000D01*
G01*
X171950000Y-105525000D01*
G75*
G02*
X172200000Y-105275000I250000J0D01*
G01*
X173800000Y-105275000D01*
G75*
G02*
X174050000Y-105525000I0J-250000D01*
G01*
G37*
%TD*%
%TO.C,F6*%
G36*
G01*
X171950000Y-117475000D02*
X171950000Y-112525000D01*
G75*
G02*
X172200000Y-112275000I250000J0D01*
G01*
X173800000Y-112275000D01*
G75*
G02*
X174050000Y-112525000I0J-250000D01*
G01*
X174050000Y-117475000D01*
G75*
G02*
X173800000Y-117725000I-250000J0D01*
G01*
X172200000Y-117725000D01*
G75*
G02*
X171950000Y-117475000I0J250000D01*
G01*
G37*
G36*
G01*
X165000000Y-117475000D02*
X165000000Y-112525000D01*
G75*
G02*
X165250000Y-112275000I250000J0D01*
G01*
X166850000Y-112275000D01*
G75*
G02*
X167100000Y-112525000I0J-250000D01*
G01*
X167100000Y-117475000D01*
G75*
G02*
X166850000Y-117725000I-250000J0D01*
G01*
X165250000Y-117725000D01*
G75*
G02*
X165000000Y-117475000I0J250000D01*
G01*
G37*
%TD*%
%TO.C,F5*%
G36*
G01*
X146600000Y-112525000D02*
X146600000Y-117475000D01*
G75*
G02*
X146350000Y-117725000I-250000J0D01*
G01*
X144750000Y-117725000D01*
G75*
G02*
X144500000Y-117475000I0J250000D01*
G01*
X144500000Y-112525000D01*
G75*
G02*
X144750000Y-112275000I250000J0D01*
G01*
X146350000Y-112275000D01*
G75*
G02*
X146600000Y-112525000I0J-250000D01*
G01*
G37*
G36*
G01*
X153550000Y-112525000D02*
X153550000Y-117475000D01*
G75*
G02*
X153300000Y-117725000I-250000J0D01*
G01*
X151700000Y-117725000D01*
G75*
G02*
X151450000Y-117475000I0J250000D01*
G01*
X151450000Y-112525000D01*
G75*
G02*
X151700000Y-112275000I250000J0D01*
G01*
X153300000Y-112275000D01*
G75*
G02*
X153550000Y-112525000I0J-250000D01*
G01*
G37*
%TD*%
%TO.C,F4*%
G36*
G01*
X136550000Y-112525000D02*
X136550000Y-117475000D01*
G75*
G02*
X136300000Y-117725000I-250000J0D01*
G01*
X134700000Y-117725000D01*
G75*
G02*
X134450000Y-117475000I0J250000D01*
G01*
X134450000Y-112525000D01*
G75*
G02*
X134700000Y-112275000I250000J0D01*
G01*
X136300000Y-112275000D01*
G75*
G02*
X136550000Y-112525000I0J-250000D01*
G01*
G37*
G36*
G01*
X143500000Y-112525000D02*
X143500000Y-117475000D01*
G75*
G02*
X143250000Y-117725000I-250000J0D01*
G01*
X141650000Y-117725000D01*
G75*
G02*
X141400000Y-117475000I0J250000D01*
G01*
X141400000Y-112525000D01*
G75*
G02*
X141650000Y-112275000I250000J0D01*
G01*
X143250000Y-112275000D01*
G75*
G02*
X143500000Y-112525000I0J-250000D01*
G01*
G37*
%TD*%
%TO.C,F3*%
G36*
G01*
X103450000Y-117475000D02*
X103450000Y-112525000D01*
G75*
G02*
X103700000Y-112275000I250000J0D01*
G01*
X105300000Y-112275000D01*
G75*
G02*
X105550000Y-112525000I0J-250000D01*
G01*
X105550000Y-117475000D01*
G75*
G02*
X105300000Y-117725000I-250000J0D01*
G01*
X103700000Y-117725000D01*
G75*
G02*
X103450000Y-117475000I0J250000D01*
G01*
G37*
G36*
G01*
X96500000Y-117475000D02*
X96500000Y-112525000D01*
G75*
G02*
X96750000Y-112275000I250000J0D01*
G01*
X98350000Y-112275000D01*
G75*
G02*
X98600000Y-112525000I0J-250000D01*
G01*
X98600000Y-117475000D01*
G75*
G02*
X98350000Y-117725000I-250000J0D01*
G01*
X96750000Y-117725000D01*
G75*
G02*
X96500000Y-117475000I0J250000D01*
G01*
G37*
%TD*%
%TO.C,F2*%
G36*
G01*
X88050000Y-112525000D02*
X88050000Y-117475000D01*
G75*
G02*
X87800000Y-117725000I-250000J0D01*
G01*
X86200000Y-117725000D01*
G75*
G02*
X85950000Y-117475000I0J250000D01*
G01*
X85950000Y-112525000D01*
G75*
G02*
X86200000Y-112275000I250000J0D01*
G01*
X87800000Y-112275000D01*
G75*
G02*
X88050000Y-112525000I0J-250000D01*
G01*
G37*
G36*
G01*
X95000000Y-112525000D02*
X95000000Y-117475000D01*
G75*
G02*
X94750000Y-117725000I-250000J0D01*
G01*
X93150000Y-117725000D01*
G75*
G02*
X92900000Y-117475000I0J250000D01*
G01*
X92900000Y-112525000D01*
G75*
G02*
X93150000Y-112275000I250000J0D01*
G01*
X94750000Y-112275000D01*
G75*
G02*
X95000000Y-112525000I0J-250000D01*
G01*
G37*
%TD*%
%TO.C,F1*%
G36*
G01*
X67075000Y-112525000D02*
X67075000Y-117475000D01*
G75*
G02*
X66825000Y-117725000I-250000J0D01*
G01*
X65225000Y-117725000D01*
G75*
G02*
X64975000Y-117475000I0J250000D01*
G01*
X64975000Y-112525000D01*
G75*
G02*
X65225000Y-112275000I250000J0D01*
G01*
X66825000Y-112275000D01*
G75*
G02*
X67075000Y-112525000I0J-250000D01*
G01*
G37*
G36*
G01*
X74025000Y-112525000D02*
X74025000Y-117475000D01*
G75*
G02*
X73775000Y-117725000I-250000J0D01*
G01*
X72175000Y-117725000D01*
G75*
G02*
X71925000Y-117475000I0J250000D01*
G01*
X71925000Y-112525000D01*
G75*
G02*
X72175000Y-112275000I250000J0D01*
G01*
X73775000Y-112275000D01*
G75*
G02*
X74025000Y-112525000I0J-250000D01*
G01*
G37*
%TD*%
%TO.C,D3*%
G36*
G01*
X57787500Y-100125000D02*
X57787500Y-98875000D01*
G75*
G02*
X58037500Y-98625000I250000J0D01*
G01*
X58962500Y-98625000D01*
G75*
G02*
X59212500Y-98875000I0J-250000D01*
G01*
X59212500Y-100125000D01*
G75*
G02*
X58962500Y-100375000I-250000J0D01*
G01*
X58037500Y-100375000D01*
G75*
G02*
X57787500Y-100125000I0J250000D01*
G01*
G37*
G36*
G01*
X54812500Y-100125000D02*
X54812500Y-98875000D01*
G75*
G02*
X55062500Y-98625000I250000J0D01*
G01*
X55987500Y-98625000D01*
G75*
G02*
X56237500Y-98875000I0J-250000D01*
G01*
X56237500Y-100125000D01*
G75*
G02*
X55987500Y-100375000I-250000J0D01*
G01*
X55062500Y-100375000D01*
G75*
G02*
X54812500Y-100125000I0J250000D01*
G01*
G37*
%TD*%
D14*
%TO.C,D2*%
X110450000Y-99750000D03*
X115850000Y-99750000D03*
%TD*%
%TO.C,D1*%
G36*
G01*
X57787500Y-104125000D02*
X57787500Y-102875000D01*
G75*
G02*
X58037500Y-102625000I250000J0D01*
G01*
X58962500Y-102625000D01*
G75*
G02*
X59212500Y-102875000I0J-250000D01*
G01*
X59212500Y-104125000D01*
G75*
G02*
X58962500Y-104375000I-250000J0D01*
G01*
X58037500Y-104375000D01*
G75*
G02*
X57787500Y-104125000I0J250000D01*
G01*
G37*
G36*
G01*
X54812500Y-104125000D02*
X54812500Y-102875000D01*
G75*
G02*
X55062500Y-102625000I250000J0D01*
G01*
X55987500Y-102625000D01*
G75*
G02*
X56237500Y-102875000I0J-250000D01*
G01*
X56237500Y-104125000D01*
G75*
G02*
X55987500Y-104375000I-250000J0D01*
G01*
X55062500Y-104375000D01*
G75*
G02*
X54812500Y-104125000I0J250000D01*
G01*
G37*
%TD*%
%TO.C,C14*%
G36*
G01*
X178262500Y-104975000D02*
X178737500Y-104975000D01*
G75*
G02*
X178975000Y-105212500I0J-237500D01*
G01*
X178975000Y-105787500D01*
G75*
G02*
X178737500Y-106025000I-237500J0D01*
G01*
X178262500Y-106025000D01*
G75*
G02*
X178025000Y-105787500I0J237500D01*
G01*
X178025000Y-105212500D01*
G75*
G02*
X178262500Y-104975000I237500J0D01*
G01*
G37*
G36*
G01*
X178262500Y-103225000D02*
X178737500Y-103225000D01*
G75*
G02*
X178975000Y-103462500I0J-237500D01*
G01*
X178975000Y-104037500D01*
G75*
G02*
X178737500Y-104275000I-237500J0D01*
G01*
X178262500Y-104275000D01*
G75*
G02*
X178025000Y-104037500I0J237500D01*
G01*
X178025000Y-103462500D01*
G75*
G02*
X178262500Y-103225000I237500J0D01*
G01*
G37*
%TD*%
%TO.C,C12*%
G36*
G01*
X178262500Y-111475000D02*
X178737500Y-111475000D01*
G75*
G02*
X178975000Y-111712500I0J-237500D01*
G01*
X178975000Y-112287500D01*
G75*
G02*
X178737500Y-112525000I-237500J0D01*
G01*
X178262500Y-112525000D01*
G75*
G02*
X178025000Y-112287500I0J237500D01*
G01*
X178025000Y-111712500D01*
G75*
G02*
X178262500Y-111475000I237500J0D01*
G01*
G37*
G36*
G01*
X178262500Y-109725000D02*
X178737500Y-109725000D01*
G75*
G02*
X178975000Y-109962500I0J-237500D01*
G01*
X178975000Y-110537500D01*
G75*
G02*
X178737500Y-110775000I-237500J0D01*
G01*
X178262500Y-110775000D01*
G75*
G02*
X178025000Y-110537500I0J237500D01*
G01*
X178025000Y-109962500D01*
G75*
G02*
X178262500Y-109725000I237500J0D01*
G01*
G37*
%TD*%
%TO.C,C11*%
G36*
G01*
X178737500Y-116775000D02*
X178262500Y-116775000D01*
G75*
G02*
X178025000Y-116537500I0J237500D01*
G01*
X178025000Y-115962500D01*
G75*
G02*
X178262500Y-115725000I237500J0D01*
G01*
X178737500Y-115725000D01*
G75*
G02*
X178975000Y-115962500I0J-237500D01*
G01*
X178975000Y-116537500D01*
G75*
G02*
X178737500Y-116775000I-237500J0D01*
G01*
G37*
G36*
G01*
X178737500Y-118525000D02*
X178262500Y-118525000D01*
G75*
G02*
X178025000Y-118287500I0J237500D01*
G01*
X178025000Y-117712500D01*
G75*
G02*
X178262500Y-117475000I237500J0D01*
G01*
X178737500Y-117475000D01*
G75*
G02*
X178975000Y-117712500I0J-237500D01*
G01*
X178975000Y-118287500D01*
G75*
G02*
X178737500Y-118525000I-237500J0D01*
G01*
G37*
%TD*%
%TO.C,C10*%
G36*
G01*
X104987500Y-98275000D02*
X104512500Y-98275000D01*
G75*
G02*
X104275000Y-98037500I0J237500D01*
G01*
X104275000Y-97462500D01*
G75*
G02*
X104512500Y-97225000I237500J0D01*
G01*
X104987500Y-97225000D01*
G75*
G02*
X105225000Y-97462500I0J-237500D01*
G01*
X105225000Y-98037500D01*
G75*
G02*
X104987500Y-98275000I-237500J0D01*
G01*
G37*
G36*
G01*
X104987500Y-100025000D02*
X104512500Y-100025000D01*
G75*
G02*
X104275000Y-99787500I0J237500D01*
G01*
X104275000Y-99212500D01*
G75*
G02*
X104512500Y-98975000I237500J0D01*
G01*
X104987500Y-98975000D01*
G75*
G02*
X105225000Y-99212500I0J-237500D01*
G01*
X105225000Y-99787500D01*
G75*
G02*
X104987500Y-100025000I-237500J0D01*
G01*
G37*
%TD*%
%TO.C,C9*%
G36*
G01*
X171725000Y-119737500D02*
X171725000Y-119262500D01*
G75*
G02*
X171962500Y-119025000I237500J0D01*
G01*
X172537500Y-119025000D01*
G75*
G02*
X172775000Y-119262500I0J-237500D01*
G01*
X172775000Y-119737500D01*
G75*
G02*
X172537500Y-119975000I-237500J0D01*
G01*
X171962500Y-119975000D01*
G75*
G02*
X171725000Y-119737500I0J237500D01*
G01*
G37*
G36*
G01*
X169975000Y-119737500D02*
X169975000Y-119262500D01*
G75*
G02*
X170212500Y-119025000I237500J0D01*
G01*
X170787500Y-119025000D01*
G75*
G02*
X171025000Y-119262500I0J-237500D01*
G01*
X171025000Y-119737500D01*
G75*
G02*
X170787500Y-119975000I-237500J0D01*
G01*
X170212500Y-119975000D01*
G75*
G02*
X169975000Y-119737500I0J237500D01*
G01*
G37*
%TD*%
%TO.C,C8*%
G36*
G01*
X146975000Y-119737500D02*
X146975000Y-119262500D01*
G75*
G02*
X147212500Y-119025000I237500J0D01*
G01*
X147787500Y-119025000D01*
G75*
G02*
X148025000Y-119262500I0J-237500D01*
G01*
X148025000Y-119737500D01*
G75*
G02*
X147787500Y-119975000I-237500J0D01*
G01*
X147212500Y-119975000D01*
G75*
G02*
X146975000Y-119737500I0J237500D01*
G01*
G37*
G36*
G01*
X145225000Y-119737500D02*
X145225000Y-119262500D01*
G75*
G02*
X145462500Y-119025000I237500J0D01*
G01*
X146037500Y-119025000D01*
G75*
G02*
X146275000Y-119262500I0J-237500D01*
G01*
X146275000Y-119737500D01*
G75*
G02*
X146037500Y-119975000I-237500J0D01*
G01*
X145462500Y-119975000D01*
G75*
G02*
X145225000Y-119737500I0J237500D01*
G01*
G37*
%TD*%
%TO.C,C7*%
G36*
G01*
X106512500Y-94975000D02*
X106987500Y-94975000D01*
G75*
G02*
X107225000Y-95212500I0J-237500D01*
G01*
X107225000Y-95787500D01*
G75*
G02*
X106987500Y-96025000I-237500J0D01*
G01*
X106512500Y-96025000D01*
G75*
G02*
X106275000Y-95787500I0J237500D01*
G01*
X106275000Y-95212500D01*
G75*
G02*
X106512500Y-94975000I237500J0D01*
G01*
G37*
G36*
G01*
X106512500Y-93225000D02*
X106987500Y-93225000D01*
G75*
G02*
X107225000Y-93462500I0J-237500D01*
G01*
X107225000Y-94037500D01*
G75*
G02*
X106987500Y-94275000I-237500J0D01*
G01*
X106512500Y-94275000D01*
G75*
G02*
X106275000Y-94037500I0J237500D01*
G01*
X106275000Y-93462500D01*
G75*
G02*
X106512500Y-93225000I237500J0D01*
G01*
G37*
%TD*%
%TO.C,C6*%
G36*
G01*
X115312500Y-94725000D02*
X115787500Y-94725000D01*
G75*
G02*
X116025000Y-94962500I0J-237500D01*
G01*
X116025000Y-95537500D01*
G75*
G02*
X115787500Y-95775000I-237500J0D01*
G01*
X115312500Y-95775000D01*
G75*
G02*
X115075000Y-95537500I0J237500D01*
G01*
X115075000Y-94962500D01*
G75*
G02*
X115312500Y-94725000I237500J0D01*
G01*
G37*
G36*
G01*
X115312500Y-92975000D02*
X115787500Y-92975000D01*
G75*
G02*
X116025000Y-93212500I0J-237500D01*
G01*
X116025000Y-93787500D01*
G75*
G02*
X115787500Y-94025000I-237500J0D01*
G01*
X115312500Y-94025000D01*
G75*
G02*
X115075000Y-93787500I0J237500D01*
G01*
X115075000Y-93212500D01*
G75*
G02*
X115312500Y-92975000I237500J0D01*
G01*
G37*
%TD*%
%TO.C,C5*%
G36*
G01*
X128975000Y-119737500D02*
X128975000Y-119262500D01*
G75*
G02*
X129212500Y-119025000I237500J0D01*
G01*
X129787500Y-119025000D01*
G75*
G02*
X130025000Y-119262500I0J-237500D01*
G01*
X130025000Y-119737500D01*
G75*
G02*
X129787500Y-119975000I-237500J0D01*
G01*
X129212500Y-119975000D01*
G75*
G02*
X128975000Y-119737500I0J237500D01*
G01*
G37*
G36*
G01*
X127225000Y-119737500D02*
X127225000Y-119262500D01*
G75*
G02*
X127462500Y-119025000I237500J0D01*
G01*
X128037500Y-119025000D01*
G75*
G02*
X128275000Y-119262500I0J-237500D01*
G01*
X128275000Y-119737500D01*
G75*
G02*
X128037500Y-119975000I-237500J0D01*
G01*
X127462500Y-119975000D01*
G75*
G02*
X127225000Y-119737500I0J237500D01*
G01*
G37*
%TD*%
%TO.C,C4*%
G36*
G01*
X110850000Y-119737500D02*
X110850000Y-119262500D01*
G75*
G02*
X111087500Y-119025000I237500J0D01*
G01*
X111662500Y-119025000D01*
G75*
G02*
X111900000Y-119262500I0J-237500D01*
G01*
X111900000Y-119737500D01*
G75*
G02*
X111662500Y-119975000I-237500J0D01*
G01*
X111087500Y-119975000D01*
G75*
G02*
X110850000Y-119737500I0J237500D01*
G01*
G37*
G36*
G01*
X109100000Y-119737500D02*
X109100000Y-119262500D01*
G75*
G02*
X109337500Y-119025000I237500J0D01*
G01*
X109912500Y-119025000D01*
G75*
G02*
X110150000Y-119262500I0J-237500D01*
G01*
X110150000Y-119737500D01*
G75*
G02*
X109912500Y-119975000I-237500J0D01*
G01*
X109337500Y-119975000D01*
G75*
G02*
X109100000Y-119737500I0J237500D01*
G01*
G37*
%TD*%
%TO.C,C2*%
G36*
G01*
X67725000Y-119987500D02*
X67725000Y-119512500D01*
G75*
G02*
X67962500Y-119275000I237500J0D01*
G01*
X68537500Y-119275000D01*
G75*
G02*
X68775000Y-119512500I0J-237500D01*
G01*
X68775000Y-119987500D01*
G75*
G02*
X68537500Y-120225000I-237500J0D01*
G01*
X67962500Y-120225000D01*
G75*
G02*
X67725000Y-119987500I0J237500D01*
G01*
G37*
G36*
G01*
X65975000Y-119987500D02*
X65975000Y-119512500D01*
G75*
G02*
X66212500Y-119275000I237500J0D01*
G01*
X66787500Y-119275000D01*
G75*
G02*
X67025000Y-119512500I0J-237500D01*
G01*
X67025000Y-119987500D01*
G75*
G02*
X66787500Y-120225000I-237500J0D01*
G01*
X66212500Y-120225000D01*
G75*
G02*
X65975000Y-119987500I0J237500D01*
G01*
G37*
%TD*%
%TO.C,C1*%
G36*
G01*
X117012500Y-94725000D02*
X117487500Y-94725000D01*
G75*
G02*
X117725000Y-94962500I0J-237500D01*
G01*
X117725000Y-95537500D01*
G75*
G02*
X117487500Y-95775000I-237500J0D01*
G01*
X117012500Y-95775000D01*
G75*
G02*
X116775000Y-95537500I0J237500D01*
G01*
X116775000Y-94962500D01*
G75*
G02*
X117012500Y-94725000I237500J0D01*
G01*
G37*
G36*
G01*
X117012500Y-92975000D02*
X117487500Y-92975000D01*
G75*
G02*
X117725000Y-93212500I0J-237500D01*
G01*
X117725000Y-93787500D01*
G75*
G02*
X117487500Y-94025000I-237500J0D01*
G01*
X117012500Y-94025000D01*
G75*
G02*
X116775000Y-93787500I0J237500D01*
G01*
X116775000Y-93212500D01*
G75*
G02*
X117012500Y-92975000I237500J0D01*
G01*
G37*
%TD*%
M02*
