%TF.GenerationSoftware,KiCad,Pcbnew,5.1.6*%
%TF.CreationDate,2020-06-19T21:58:21+02:00*%
%TF.ProjectId,laptop2usb,6c617074-6f70-4327-9573-622e6b696361,rev?*%
%TF.SameCoordinates,Original*%
%TF.FileFunction,Copper,L2,Bot*%
%TF.FilePolarity,Positive*%
%FSLAX46Y46*%
G04 Gerber Fmt 4.6, Leading zero omitted, Abs format (unit mm)*
G04 Created by KiCad (PCBNEW 5.1.6) date 2020-06-19 21:58:21*
%MOMM*%
%LPD*%
G01*
G04 APERTURE LIST*
%TA.AperFunction,ComponentPad*%
%ADD10C,3.000000*%
%TD*%
%TA.AperFunction,ComponentPad*%
%ADD11R,3.000000X3.000000*%
%TD*%
%TA.AperFunction,Conductor*%
%ADD12R,1.600000X1.800000*%
%TD*%
%TA.AperFunction,ViaPad*%
%ADD13C,0.500000*%
%TD*%
%TA.AperFunction,ComponentPad*%
%ADD14C,1.600000*%
%TD*%
%TA.AperFunction,ComponentPad*%
%ADD15R,1.600000X1.500000*%
%TD*%
%TA.AperFunction,ViaPad*%
%ADD16C,4.500000*%
%TD*%
%TA.AperFunction,ViaPad*%
%ADD17C,0.800000*%
%TD*%
%TA.AperFunction,Conductor*%
%ADD18C,0.250000*%
%TD*%
%TA.AperFunction,Conductor*%
%ADD19C,0.254000*%
%TD*%
G04 APERTURE END LIST*
D10*
%TO.P,J8,5*%
%TO.N,Net-(C14-Pad1)*%
X183500000Y-101180000D03*
%TO.P,J8,4*%
%TO.N,GND*%
X183500000Y-106260000D03*
D11*
%TO.P,J8,1*%
%TO.N,Net-(C11-Pad1)*%
X183500000Y-121500000D03*
D10*
%TO.P,J8,3*%
%TO.N,Net-(C12-Pad1)*%
X183500000Y-111340000D03*
%TO.P,J8,2*%
%TO.N,GND*%
X183500000Y-116420000D03*
%TD*%
%TO.P,J1,2*%
%TO.N,GND*%
X56500000Y-114500000D03*
D11*
%TO.P,J1,1*%
%TO.N,Net-(C1-Pad1)*%
X56500000Y-109420000D03*
%TD*%
D12*
%TO.N,GND*%
%TO.C,U1*%
X111250000Y-95250000D03*
D13*
X111800000Y-95900000D03*
X110700000Y-95900000D03*
X111800000Y-94600000D03*
X110700000Y-94600000D03*
%TD*%
D14*
%TO.P,J7,4*%
%TO.N,GND*%
X175000000Y-123500000D03*
%TO.P,J7,3*%
%TO.N,Net-(J7-Pad2)*%
X172500000Y-123500000D03*
%TO.P,J7,2*%
X170500000Y-123500000D03*
D15*
%TO.P,J7,1*%
%TO.N,Net-(C9-Pad1)*%
X168000000Y-123500000D03*
D10*
%TO.P,J7,5*%
%TO.N,GND*%
X178070000Y-126210000D03*
X164930000Y-126210000D03*
%TD*%
D14*
%TO.P,J6,4*%
%TO.N,GND*%
X150000000Y-123500000D03*
%TO.P,J6,3*%
%TO.N,Net-(J6-Pad2)*%
X147500000Y-123500000D03*
%TO.P,J6,2*%
X145500000Y-123500000D03*
D15*
%TO.P,J6,1*%
%TO.N,Net-(C8-Pad1)*%
X143000000Y-123500000D03*
D10*
%TO.P,J6,5*%
%TO.N,GND*%
X153070000Y-126210000D03*
X139930000Y-126210000D03*
%TD*%
D14*
%TO.P,J5,4*%
%TO.N,GND*%
X132000000Y-123500000D03*
%TO.P,J5,3*%
%TO.N,Net-(J5-Pad2)*%
X129500000Y-123500000D03*
%TO.P,J5,2*%
X127500000Y-123500000D03*
D15*
%TO.P,J5,1*%
%TO.N,Net-(C5-Pad1)*%
X125000000Y-123500000D03*
D10*
%TO.P,J5,5*%
%TO.N,GND*%
X135070000Y-126210000D03*
X121930000Y-126210000D03*
%TD*%
D14*
%TO.P,J4,4*%
%TO.N,GND*%
X114000000Y-123500000D03*
%TO.P,J4,3*%
%TO.N,Net-(J4-Pad2)*%
X111500000Y-123500000D03*
%TO.P,J4,2*%
X109500000Y-123500000D03*
D15*
%TO.P,J4,1*%
%TO.N,Net-(C4-Pad1)*%
X107000000Y-123500000D03*
D10*
%TO.P,J4,5*%
%TO.N,GND*%
X117070000Y-126210000D03*
X103930000Y-126210000D03*
%TD*%
D14*
%TO.P,J3,4*%
%TO.N,GND*%
X96000000Y-123500000D03*
%TO.P,J3,3*%
%TO.N,Net-(J3-Pad2)*%
X93500000Y-123500000D03*
%TO.P,J3,2*%
X91500000Y-123500000D03*
D15*
%TO.P,J3,1*%
%TO.N,Net-(C3-Pad1)*%
X89000000Y-123500000D03*
D10*
%TO.P,J3,5*%
%TO.N,GND*%
X99070000Y-126210000D03*
X85930000Y-126210000D03*
%TD*%
D14*
%TO.P,J2,4*%
%TO.N,GND*%
X71000000Y-123500000D03*
%TO.P,J2,3*%
%TO.N,Net-(J2-Pad2)*%
X68500000Y-123500000D03*
%TO.P,J2,2*%
X66500000Y-123500000D03*
D15*
%TO.P,J2,1*%
%TO.N,Net-(C2-Pad1)*%
X64000000Y-123500000D03*
D10*
%TO.P,J2,5*%
%TO.N,GND*%
X74070000Y-126210000D03*
X60930000Y-126210000D03*
%TD*%
D16*
%TO.N,*%
X184000000Y-129000000D03*
X56000000Y-129000000D03*
X56000000Y-94000000D03*
X184000000Y-94000000D03*
D17*
%TO.N,GND*%
X110500000Y-101750000D03*
X112750000Y-101750000D03*
X108250000Y-101750000D03*
X108250000Y-103500000D03*
X112750000Y-103500000D03*
X110500000Y-97500000D03*
X112750000Y-97500000D03*
X108250000Y-97500000D03*
X118263682Y-94740212D03*
%TO.N,+5V*%
X68091853Y-99849343D03*
X61250000Y-97500000D03*
%TD*%
D18*
%TO.N,+5V*%
X66500000Y-99000000D02*
X67349343Y-99849343D01*
X61250000Y-97500000D02*
X62750000Y-99000000D01*
X67349343Y-99849343D02*
X68091853Y-99849343D01*
X62750000Y-99000000D02*
X66500000Y-99000000D01*
%TD*%
D19*
%TO.N,GND*%
G36*
X183158477Y-91225869D02*
G01*
X182633440Y-91443346D01*
X182160920Y-91759074D01*
X181759074Y-92160920D01*
X181443346Y-92633440D01*
X181225869Y-93158477D01*
X181115000Y-93715852D01*
X181115000Y-94284148D01*
X181225869Y-94841523D01*
X181443346Y-95366560D01*
X181759074Y-95839080D01*
X182160920Y-96240926D01*
X182633440Y-96556654D01*
X183158477Y-96774131D01*
X183715852Y-96885000D01*
X184284148Y-96885000D01*
X184841523Y-96774131D01*
X185366560Y-96556654D01*
X185839080Y-96240926D01*
X186240926Y-95839080D01*
X186556654Y-95366560D01*
X186774131Y-94841523D01*
X186840001Y-94510373D01*
X186840000Y-128489622D01*
X186774131Y-128158477D01*
X186556654Y-127633440D01*
X186240926Y-127160920D01*
X185839080Y-126759074D01*
X185366560Y-126443346D01*
X184841523Y-126225869D01*
X184284148Y-126115000D01*
X183715852Y-126115000D01*
X183158477Y-126225869D01*
X182633440Y-126443346D01*
X182160920Y-126759074D01*
X181759074Y-127160920D01*
X181443346Y-127633440D01*
X181225869Y-128158477D01*
X181115000Y-128715852D01*
X181115000Y-129284148D01*
X181225869Y-129841523D01*
X181443346Y-130366560D01*
X181759074Y-130839080D01*
X182160920Y-131240926D01*
X182633440Y-131556654D01*
X183158477Y-131774131D01*
X183489622Y-131840000D01*
X56510378Y-131840000D01*
X56841523Y-131774131D01*
X57366560Y-131556654D01*
X57839080Y-131240926D01*
X58240926Y-130839080D01*
X58556654Y-130366560D01*
X58774131Y-129841523D01*
X58885000Y-129284148D01*
X58885000Y-128715852D01*
X58774131Y-128158477D01*
X58584909Y-127701653D01*
X59617952Y-127701653D01*
X59773962Y-128017214D01*
X60148745Y-128208020D01*
X60553551Y-128322044D01*
X60972824Y-128354902D01*
X61390451Y-128305334D01*
X61790383Y-128175243D01*
X62086038Y-128017214D01*
X62242048Y-127701653D01*
X72757952Y-127701653D01*
X72913962Y-128017214D01*
X73288745Y-128208020D01*
X73693551Y-128322044D01*
X74112824Y-128354902D01*
X74530451Y-128305334D01*
X74930383Y-128175243D01*
X75226038Y-128017214D01*
X75382048Y-127701653D01*
X84617952Y-127701653D01*
X84773962Y-128017214D01*
X85148745Y-128208020D01*
X85553551Y-128322044D01*
X85972824Y-128354902D01*
X86390451Y-128305334D01*
X86790383Y-128175243D01*
X87086038Y-128017214D01*
X87242048Y-127701653D01*
X97757952Y-127701653D01*
X97913962Y-128017214D01*
X98288745Y-128208020D01*
X98693551Y-128322044D01*
X99112824Y-128354902D01*
X99530451Y-128305334D01*
X99930383Y-128175243D01*
X100226038Y-128017214D01*
X100382048Y-127701653D01*
X102617952Y-127701653D01*
X102773962Y-128017214D01*
X103148745Y-128208020D01*
X103553551Y-128322044D01*
X103972824Y-128354902D01*
X104390451Y-128305334D01*
X104790383Y-128175243D01*
X105086038Y-128017214D01*
X105242048Y-127701653D01*
X115757952Y-127701653D01*
X115913962Y-128017214D01*
X116288745Y-128208020D01*
X116693551Y-128322044D01*
X117112824Y-128354902D01*
X117530451Y-128305334D01*
X117930383Y-128175243D01*
X118226038Y-128017214D01*
X118382048Y-127701653D01*
X120617952Y-127701653D01*
X120773962Y-128017214D01*
X121148745Y-128208020D01*
X121553551Y-128322044D01*
X121972824Y-128354902D01*
X122390451Y-128305334D01*
X122790383Y-128175243D01*
X123086038Y-128017214D01*
X123242048Y-127701653D01*
X133757952Y-127701653D01*
X133913962Y-128017214D01*
X134288745Y-128208020D01*
X134693551Y-128322044D01*
X135112824Y-128354902D01*
X135530451Y-128305334D01*
X135930383Y-128175243D01*
X136226038Y-128017214D01*
X136382048Y-127701653D01*
X138617952Y-127701653D01*
X138773962Y-128017214D01*
X139148745Y-128208020D01*
X139553551Y-128322044D01*
X139972824Y-128354902D01*
X140390451Y-128305334D01*
X140790383Y-128175243D01*
X141086038Y-128017214D01*
X141242048Y-127701653D01*
X151757952Y-127701653D01*
X151913962Y-128017214D01*
X152288745Y-128208020D01*
X152693551Y-128322044D01*
X153112824Y-128354902D01*
X153530451Y-128305334D01*
X153930383Y-128175243D01*
X154226038Y-128017214D01*
X154382048Y-127701653D01*
X163617952Y-127701653D01*
X163773962Y-128017214D01*
X164148745Y-128208020D01*
X164553551Y-128322044D01*
X164972824Y-128354902D01*
X165390451Y-128305334D01*
X165790383Y-128175243D01*
X166086038Y-128017214D01*
X166242048Y-127701653D01*
X176757952Y-127701653D01*
X176913962Y-128017214D01*
X177288745Y-128208020D01*
X177693551Y-128322044D01*
X178112824Y-128354902D01*
X178530451Y-128305334D01*
X178930383Y-128175243D01*
X179226038Y-128017214D01*
X179382048Y-127701653D01*
X178070000Y-126389605D01*
X176757952Y-127701653D01*
X166242048Y-127701653D01*
X164930000Y-126389605D01*
X163617952Y-127701653D01*
X154382048Y-127701653D01*
X153070000Y-126389605D01*
X151757952Y-127701653D01*
X141242048Y-127701653D01*
X139930000Y-126389605D01*
X138617952Y-127701653D01*
X136382048Y-127701653D01*
X135070000Y-126389605D01*
X133757952Y-127701653D01*
X123242048Y-127701653D01*
X121930000Y-126389605D01*
X120617952Y-127701653D01*
X118382048Y-127701653D01*
X117070000Y-126389605D01*
X115757952Y-127701653D01*
X105242048Y-127701653D01*
X103930000Y-126389605D01*
X102617952Y-127701653D01*
X100382048Y-127701653D01*
X99070000Y-126389605D01*
X97757952Y-127701653D01*
X87242048Y-127701653D01*
X85930000Y-126389605D01*
X84617952Y-127701653D01*
X75382048Y-127701653D01*
X74070000Y-126389605D01*
X72757952Y-127701653D01*
X62242048Y-127701653D01*
X60930000Y-126389605D01*
X59617952Y-127701653D01*
X58584909Y-127701653D01*
X58556654Y-127633440D01*
X58240926Y-127160920D01*
X57839080Y-126759074D01*
X57366560Y-126443346D01*
X56906599Y-126252824D01*
X58785098Y-126252824D01*
X58834666Y-126670451D01*
X58964757Y-127070383D01*
X59122786Y-127366038D01*
X59438347Y-127522048D01*
X60750395Y-126210000D01*
X61109605Y-126210000D01*
X62421653Y-127522048D01*
X62737214Y-127366038D01*
X62928020Y-126991255D01*
X63042044Y-126586449D01*
X63068189Y-126252824D01*
X71925098Y-126252824D01*
X71974666Y-126670451D01*
X72104757Y-127070383D01*
X72262786Y-127366038D01*
X72578347Y-127522048D01*
X73890395Y-126210000D01*
X74249605Y-126210000D01*
X75561653Y-127522048D01*
X75877214Y-127366038D01*
X76068020Y-126991255D01*
X76182044Y-126586449D01*
X76208189Y-126252824D01*
X83785098Y-126252824D01*
X83834666Y-126670451D01*
X83964757Y-127070383D01*
X84122786Y-127366038D01*
X84438347Y-127522048D01*
X85750395Y-126210000D01*
X86109605Y-126210000D01*
X87421653Y-127522048D01*
X87737214Y-127366038D01*
X87928020Y-126991255D01*
X88042044Y-126586449D01*
X88068189Y-126252824D01*
X96925098Y-126252824D01*
X96974666Y-126670451D01*
X97104757Y-127070383D01*
X97262786Y-127366038D01*
X97578347Y-127522048D01*
X98890395Y-126210000D01*
X99249605Y-126210000D01*
X100561653Y-127522048D01*
X100877214Y-127366038D01*
X101068020Y-126991255D01*
X101182044Y-126586449D01*
X101208189Y-126252824D01*
X101785098Y-126252824D01*
X101834666Y-126670451D01*
X101964757Y-127070383D01*
X102122786Y-127366038D01*
X102438347Y-127522048D01*
X103750395Y-126210000D01*
X104109605Y-126210000D01*
X105421653Y-127522048D01*
X105737214Y-127366038D01*
X105928020Y-126991255D01*
X106042044Y-126586449D01*
X106068189Y-126252824D01*
X114925098Y-126252824D01*
X114974666Y-126670451D01*
X115104757Y-127070383D01*
X115262786Y-127366038D01*
X115578347Y-127522048D01*
X116890395Y-126210000D01*
X117249605Y-126210000D01*
X118561653Y-127522048D01*
X118877214Y-127366038D01*
X119068020Y-126991255D01*
X119182044Y-126586449D01*
X119208189Y-126252824D01*
X119785098Y-126252824D01*
X119834666Y-126670451D01*
X119964757Y-127070383D01*
X120122786Y-127366038D01*
X120438347Y-127522048D01*
X121750395Y-126210000D01*
X122109605Y-126210000D01*
X123421653Y-127522048D01*
X123737214Y-127366038D01*
X123928020Y-126991255D01*
X124042044Y-126586449D01*
X124068189Y-126252824D01*
X132925098Y-126252824D01*
X132974666Y-126670451D01*
X133104757Y-127070383D01*
X133262786Y-127366038D01*
X133578347Y-127522048D01*
X134890395Y-126210000D01*
X135249605Y-126210000D01*
X136561653Y-127522048D01*
X136877214Y-127366038D01*
X137068020Y-126991255D01*
X137182044Y-126586449D01*
X137208189Y-126252824D01*
X137785098Y-126252824D01*
X137834666Y-126670451D01*
X137964757Y-127070383D01*
X138122786Y-127366038D01*
X138438347Y-127522048D01*
X139750395Y-126210000D01*
X140109605Y-126210000D01*
X141421653Y-127522048D01*
X141737214Y-127366038D01*
X141928020Y-126991255D01*
X142042044Y-126586449D01*
X142068189Y-126252824D01*
X150925098Y-126252824D01*
X150974666Y-126670451D01*
X151104757Y-127070383D01*
X151262786Y-127366038D01*
X151578347Y-127522048D01*
X152890395Y-126210000D01*
X153249605Y-126210000D01*
X154561653Y-127522048D01*
X154877214Y-127366038D01*
X155068020Y-126991255D01*
X155182044Y-126586449D01*
X155208189Y-126252824D01*
X162785098Y-126252824D01*
X162834666Y-126670451D01*
X162964757Y-127070383D01*
X163122786Y-127366038D01*
X163438347Y-127522048D01*
X164750395Y-126210000D01*
X165109605Y-126210000D01*
X166421653Y-127522048D01*
X166737214Y-127366038D01*
X166928020Y-126991255D01*
X167042044Y-126586449D01*
X167068189Y-126252824D01*
X175925098Y-126252824D01*
X175974666Y-126670451D01*
X176104757Y-127070383D01*
X176262786Y-127366038D01*
X176578347Y-127522048D01*
X177890395Y-126210000D01*
X178249605Y-126210000D01*
X179561653Y-127522048D01*
X179877214Y-127366038D01*
X180068020Y-126991255D01*
X180182044Y-126586449D01*
X180214902Y-126167176D01*
X180165334Y-125749549D01*
X180035243Y-125349617D01*
X179877214Y-125053962D01*
X179561653Y-124897952D01*
X178249605Y-126210000D01*
X177890395Y-126210000D01*
X176578347Y-124897952D01*
X176262786Y-125053962D01*
X176071980Y-125428745D01*
X175957956Y-125833551D01*
X175925098Y-126252824D01*
X167068189Y-126252824D01*
X167074902Y-126167176D01*
X167025334Y-125749549D01*
X166895243Y-125349617D01*
X166737214Y-125053962D01*
X166421653Y-124897952D01*
X165109605Y-126210000D01*
X164750395Y-126210000D01*
X163438347Y-124897952D01*
X163122786Y-125053962D01*
X162931980Y-125428745D01*
X162817956Y-125833551D01*
X162785098Y-126252824D01*
X155208189Y-126252824D01*
X155214902Y-126167176D01*
X155165334Y-125749549D01*
X155035243Y-125349617D01*
X154877214Y-125053962D01*
X154561653Y-124897952D01*
X153249605Y-126210000D01*
X152890395Y-126210000D01*
X151578347Y-124897952D01*
X151262786Y-125053962D01*
X151071980Y-125428745D01*
X150957956Y-125833551D01*
X150925098Y-126252824D01*
X142068189Y-126252824D01*
X142074902Y-126167176D01*
X142025334Y-125749549D01*
X141895243Y-125349617D01*
X141737214Y-125053962D01*
X141421653Y-124897952D01*
X140109605Y-126210000D01*
X139750395Y-126210000D01*
X138438347Y-124897952D01*
X138122786Y-125053962D01*
X137931980Y-125428745D01*
X137817956Y-125833551D01*
X137785098Y-126252824D01*
X137208189Y-126252824D01*
X137214902Y-126167176D01*
X137165334Y-125749549D01*
X137035243Y-125349617D01*
X136877214Y-125053962D01*
X136561653Y-124897952D01*
X135249605Y-126210000D01*
X134890395Y-126210000D01*
X133578347Y-124897952D01*
X133262786Y-125053962D01*
X133071980Y-125428745D01*
X132957956Y-125833551D01*
X132925098Y-126252824D01*
X124068189Y-126252824D01*
X124074902Y-126167176D01*
X124025334Y-125749549D01*
X123895243Y-125349617D01*
X123737214Y-125053962D01*
X123421653Y-124897952D01*
X122109605Y-126210000D01*
X121750395Y-126210000D01*
X120438347Y-124897952D01*
X120122786Y-125053962D01*
X119931980Y-125428745D01*
X119817956Y-125833551D01*
X119785098Y-126252824D01*
X119208189Y-126252824D01*
X119214902Y-126167176D01*
X119165334Y-125749549D01*
X119035243Y-125349617D01*
X118877214Y-125053962D01*
X118561653Y-124897952D01*
X117249605Y-126210000D01*
X116890395Y-126210000D01*
X115578347Y-124897952D01*
X115262786Y-125053962D01*
X115071980Y-125428745D01*
X114957956Y-125833551D01*
X114925098Y-126252824D01*
X106068189Y-126252824D01*
X106074902Y-126167176D01*
X106025334Y-125749549D01*
X105895243Y-125349617D01*
X105737214Y-125053962D01*
X105421653Y-124897952D01*
X104109605Y-126210000D01*
X103750395Y-126210000D01*
X102438347Y-124897952D01*
X102122786Y-125053962D01*
X101931980Y-125428745D01*
X101817956Y-125833551D01*
X101785098Y-126252824D01*
X101208189Y-126252824D01*
X101214902Y-126167176D01*
X101165334Y-125749549D01*
X101035243Y-125349617D01*
X100877214Y-125053962D01*
X100561653Y-124897952D01*
X99249605Y-126210000D01*
X98890395Y-126210000D01*
X97578347Y-124897952D01*
X97262786Y-125053962D01*
X97071980Y-125428745D01*
X96957956Y-125833551D01*
X96925098Y-126252824D01*
X88068189Y-126252824D01*
X88074902Y-126167176D01*
X88025334Y-125749549D01*
X87895243Y-125349617D01*
X87737214Y-125053962D01*
X87421653Y-124897952D01*
X86109605Y-126210000D01*
X85750395Y-126210000D01*
X84438347Y-124897952D01*
X84122786Y-125053962D01*
X83931980Y-125428745D01*
X83817956Y-125833551D01*
X83785098Y-126252824D01*
X76208189Y-126252824D01*
X76214902Y-126167176D01*
X76165334Y-125749549D01*
X76035243Y-125349617D01*
X75877214Y-125053962D01*
X75561653Y-124897952D01*
X74249605Y-126210000D01*
X73890395Y-126210000D01*
X72578347Y-124897952D01*
X72262786Y-125053962D01*
X72071980Y-125428745D01*
X71957956Y-125833551D01*
X71925098Y-126252824D01*
X63068189Y-126252824D01*
X63074902Y-126167176D01*
X63025334Y-125749549D01*
X62895243Y-125349617D01*
X62737214Y-125053962D01*
X62421653Y-124897952D01*
X61109605Y-126210000D01*
X60750395Y-126210000D01*
X59438347Y-124897952D01*
X59122786Y-125053962D01*
X58931980Y-125428745D01*
X58817956Y-125833551D01*
X58785098Y-126252824D01*
X56906599Y-126252824D01*
X56841523Y-126225869D01*
X56284148Y-126115000D01*
X55715852Y-126115000D01*
X55158477Y-126225869D01*
X54633440Y-126443346D01*
X54160920Y-126759074D01*
X53759074Y-127160920D01*
X53443346Y-127633440D01*
X53225869Y-128158477D01*
X53160000Y-128489622D01*
X53160000Y-124718347D01*
X59617952Y-124718347D01*
X60930000Y-126030395D01*
X62242048Y-124718347D01*
X62086038Y-124402786D01*
X61711255Y-124211980D01*
X61306449Y-124097956D01*
X60887176Y-124065098D01*
X60469549Y-124114666D01*
X60069617Y-124244757D01*
X59773962Y-124402786D01*
X59617952Y-124718347D01*
X53160000Y-124718347D01*
X53160000Y-122750000D01*
X62561928Y-122750000D01*
X62561928Y-124250000D01*
X62574188Y-124374482D01*
X62610498Y-124494180D01*
X62669463Y-124604494D01*
X62748815Y-124701185D01*
X62845506Y-124780537D01*
X62955820Y-124839502D01*
X63075518Y-124875812D01*
X63200000Y-124888072D01*
X64800000Y-124888072D01*
X64924482Y-124875812D01*
X65044180Y-124839502D01*
X65154494Y-124780537D01*
X65251185Y-124701185D01*
X65330537Y-124604494D01*
X65389502Y-124494180D01*
X65407023Y-124436419D01*
X65585241Y-124614637D01*
X65820273Y-124771680D01*
X66081426Y-124879853D01*
X66358665Y-124935000D01*
X66641335Y-124935000D01*
X66918574Y-124879853D01*
X67179727Y-124771680D01*
X67414759Y-124614637D01*
X67500000Y-124529396D01*
X67585241Y-124614637D01*
X67820273Y-124771680D01*
X68081426Y-124879853D01*
X68358665Y-124935000D01*
X68641335Y-124935000D01*
X68918574Y-124879853D01*
X69179727Y-124771680D01*
X69414759Y-124614637D01*
X69536694Y-124492702D01*
X70186903Y-124492702D01*
X70258486Y-124736671D01*
X70513996Y-124857571D01*
X70788184Y-124926300D01*
X71070512Y-124940217D01*
X71350130Y-124898787D01*
X71616292Y-124803603D01*
X71741514Y-124736671D01*
X71746890Y-124718347D01*
X72757952Y-124718347D01*
X74070000Y-126030395D01*
X75382048Y-124718347D01*
X84617952Y-124718347D01*
X85930000Y-126030395D01*
X87242048Y-124718347D01*
X87086038Y-124402786D01*
X86711255Y-124211980D01*
X86306449Y-124097956D01*
X85887176Y-124065098D01*
X85469549Y-124114666D01*
X85069617Y-124244757D01*
X84773962Y-124402786D01*
X84617952Y-124718347D01*
X75382048Y-124718347D01*
X75226038Y-124402786D01*
X74851255Y-124211980D01*
X74446449Y-124097956D01*
X74027176Y-124065098D01*
X73609549Y-124114666D01*
X73209617Y-124244757D01*
X72913962Y-124402786D01*
X72757952Y-124718347D01*
X71746890Y-124718347D01*
X71813097Y-124492702D01*
X71000000Y-123679605D01*
X70186903Y-124492702D01*
X69536694Y-124492702D01*
X69614637Y-124414759D01*
X69748692Y-124214131D01*
X69763329Y-124241514D01*
X70007298Y-124313097D01*
X70820395Y-123500000D01*
X71179605Y-123500000D01*
X71992702Y-124313097D01*
X72236671Y-124241514D01*
X72357571Y-123986004D01*
X72426300Y-123711816D01*
X72440217Y-123429488D01*
X72398787Y-123149870D01*
X72303603Y-122883708D01*
X72236671Y-122758486D01*
X72207750Y-122750000D01*
X87561928Y-122750000D01*
X87561928Y-124250000D01*
X87574188Y-124374482D01*
X87610498Y-124494180D01*
X87669463Y-124604494D01*
X87748815Y-124701185D01*
X87845506Y-124780537D01*
X87955820Y-124839502D01*
X88075518Y-124875812D01*
X88200000Y-124888072D01*
X89800000Y-124888072D01*
X89924482Y-124875812D01*
X90044180Y-124839502D01*
X90154494Y-124780537D01*
X90251185Y-124701185D01*
X90330537Y-124604494D01*
X90389502Y-124494180D01*
X90407023Y-124436419D01*
X90585241Y-124614637D01*
X90820273Y-124771680D01*
X91081426Y-124879853D01*
X91358665Y-124935000D01*
X91641335Y-124935000D01*
X91918574Y-124879853D01*
X92179727Y-124771680D01*
X92414759Y-124614637D01*
X92500000Y-124529396D01*
X92585241Y-124614637D01*
X92820273Y-124771680D01*
X93081426Y-124879853D01*
X93358665Y-124935000D01*
X93641335Y-124935000D01*
X93918574Y-124879853D01*
X94179727Y-124771680D01*
X94414759Y-124614637D01*
X94536694Y-124492702D01*
X95186903Y-124492702D01*
X95258486Y-124736671D01*
X95513996Y-124857571D01*
X95788184Y-124926300D01*
X96070512Y-124940217D01*
X96350130Y-124898787D01*
X96616292Y-124803603D01*
X96741514Y-124736671D01*
X96746890Y-124718347D01*
X97757952Y-124718347D01*
X99070000Y-126030395D01*
X100382048Y-124718347D01*
X102617952Y-124718347D01*
X103930000Y-126030395D01*
X105242048Y-124718347D01*
X105086038Y-124402786D01*
X104711255Y-124211980D01*
X104306449Y-124097956D01*
X103887176Y-124065098D01*
X103469549Y-124114666D01*
X103069617Y-124244757D01*
X102773962Y-124402786D01*
X102617952Y-124718347D01*
X100382048Y-124718347D01*
X100226038Y-124402786D01*
X99851255Y-124211980D01*
X99446449Y-124097956D01*
X99027176Y-124065098D01*
X98609549Y-124114666D01*
X98209617Y-124244757D01*
X97913962Y-124402786D01*
X97757952Y-124718347D01*
X96746890Y-124718347D01*
X96813097Y-124492702D01*
X96000000Y-123679605D01*
X95186903Y-124492702D01*
X94536694Y-124492702D01*
X94614637Y-124414759D01*
X94748692Y-124214131D01*
X94763329Y-124241514D01*
X95007298Y-124313097D01*
X95820395Y-123500000D01*
X96179605Y-123500000D01*
X96992702Y-124313097D01*
X97236671Y-124241514D01*
X97357571Y-123986004D01*
X97426300Y-123711816D01*
X97440217Y-123429488D01*
X97398787Y-123149870D01*
X97303603Y-122883708D01*
X97236671Y-122758486D01*
X97207750Y-122750000D01*
X105561928Y-122750000D01*
X105561928Y-124250000D01*
X105574188Y-124374482D01*
X105610498Y-124494180D01*
X105669463Y-124604494D01*
X105748815Y-124701185D01*
X105845506Y-124780537D01*
X105955820Y-124839502D01*
X106075518Y-124875812D01*
X106200000Y-124888072D01*
X107800000Y-124888072D01*
X107924482Y-124875812D01*
X108044180Y-124839502D01*
X108154494Y-124780537D01*
X108251185Y-124701185D01*
X108330537Y-124604494D01*
X108389502Y-124494180D01*
X108407023Y-124436419D01*
X108585241Y-124614637D01*
X108820273Y-124771680D01*
X109081426Y-124879853D01*
X109358665Y-124935000D01*
X109641335Y-124935000D01*
X109918574Y-124879853D01*
X110179727Y-124771680D01*
X110414759Y-124614637D01*
X110500000Y-124529396D01*
X110585241Y-124614637D01*
X110820273Y-124771680D01*
X111081426Y-124879853D01*
X111358665Y-124935000D01*
X111641335Y-124935000D01*
X111918574Y-124879853D01*
X112179727Y-124771680D01*
X112414759Y-124614637D01*
X112536694Y-124492702D01*
X113186903Y-124492702D01*
X113258486Y-124736671D01*
X113513996Y-124857571D01*
X113788184Y-124926300D01*
X114070512Y-124940217D01*
X114350130Y-124898787D01*
X114616292Y-124803603D01*
X114741514Y-124736671D01*
X114746890Y-124718347D01*
X115757952Y-124718347D01*
X117070000Y-126030395D01*
X118382048Y-124718347D01*
X120617952Y-124718347D01*
X121930000Y-126030395D01*
X123242048Y-124718347D01*
X123086038Y-124402786D01*
X122711255Y-124211980D01*
X122306449Y-124097956D01*
X121887176Y-124065098D01*
X121469549Y-124114666D01*
X121069617Y-124244757D01*
X120773962Y-124402786D01*
X120617952Y-124718347D01*
X118382048Y-124718347D01*
X118226038Y-124402786D01*
X117851255Y-124211980D01*
X117446449Y-124097956D01*
X117027176Y-124065098D01*
X116609549Y-124114666D01*
X116209617Y-124244757D01*
X115913962Y-124402786D01*
X115757952Y-124718347D01*
X114746890Y-124718347D01*
X114813097Y-124492702D01*
X114000000Y-123679605D01*
X113186903Y-124492702D01*
X112536694Y-124492702D01*
X112614637Y-124414759D01*
X112748692Y-124214131D01*
X112763329Y-124241514D01*
X113007298Y-124313097D01*
X113820395Y-123500000D01*
X114179605Y-123500000D01*
X114992702Y-124313097D01*
X115236671Y-124241514D01*
X115357571Y-123986004D01*
X115426300Y-123711816D01*
X115440217Y-123429488D01*
X115398787Y-123149870D01*
X115303603Y-122883708D01*
X115236671Y-122758486D01*
X115207750Y-122750000D01*
X123561928Y-122750000D01*
X123561928Y-124250000D01*
X123574188Y-124374482D01*
X123610498Y-124494180D01*
X123669463Y-124604494D01*
X123748815Y-124701185D01*
X123845506Y-124780537D01*
X123955820Y-124839502D01*
X124075518Y-124875812D01*
X124200000Y-124888072D01*
X125800000Y-124888072D01*
X125924482Y-124875812D01*
X126044180Y-124839502D01*
X126154494Y-124780537D01*
X126251185Y-124701185D01*
X126330537Y-124604494D01*
X126389502Y-124494180D01*
X126407023Y-124436419D01*
X126585241Y-124614637D01*
X126820273Y-124771680D01*
X127081426Y-124879853D01*
X127358665Y-124935000D01*
X127641335Y-124935000D01*
X127918574Y-124879853D01*
X128179727Y-124771680D01*
X128414759Y-124614637D01*
X128500000Y-124529396D01*
X128585241Y-124614637D01*
X128820273Y-124771680D01*
X129081426Y-124879853D01*
X129358665Y-124935000D01*
X129641335Y-124935000D01*
X129918574Y-124879853D01*
X130179727Y-124771680D01*
X130414759Y-124614637D01*
X130536694Y-124492702D01*
X131186903Y-124492702D01*
X131258486Y-124736671D01*
X131513996Y-124857571D01*
X131788184Y-124926300D01*
X132070512Y-124940217D01*
X132350130Y-124898787D01*
X132616292Y-124803603D01*
X132741514Y-124736671D01*
X132746890Y-124718347D01*
X133757952Y-124718347D01*
X135070000Y-126030395D01*
X136382048Y-124718347D01*
X138617952Y-124718347D01*
X139930000Y-126030395D01*
X141242048Y-124718347D01*
X141086038Y-124402786D01*
X140711255Y-124211980D01*
X140306449Y-124097956D01*
X139887176Y-124065098D01*
X139469549Y-124114666D01*
X139069617Y-124244757D01*
X138773962Y-124402786D01*
X138617952Y-124718347D01*
X136382048Y-124718347D01*
X136226038Y-124402786D01*
X135851255Y-124211980D01*
X135446449Y-124097956D01*
X135027176Y-124065098D01*
X134609549Y-124114666D01*
X134209617Y-124244757D01*
X133913962Y-124402786D01*
X133757952Y-124718347D01*
X132746890Y-124718347D01*
X132813097Y-124492702D01*
X132000000Y-123679605D01*
X131186903Y-124492702D01*
X130536694Y-124492702D01*
X130614637Y-124414759D01*
X130748692Y-124214131D01*
X130763329Y-124241514D01*
X131007298Y-124313097D01*
X131820395Y-123500000D01*
X132179605Y-123500000D01*
X132992702Y-124313097D01*
X133236671Y-124241514D01*
X133357571Y-123986004D01*
X133426300Y-123711816D01*
X133440217Y-123429488D01*
X133398787Y-123149870D01*
X133303603Y-122883708D01*
X133236671Y-122758486D01*
X133207750Y-122750000D01*
X141561928Y-122750000D01*
X141561928Y-124250000D01*
X141574188Y-124374482D01*
X141610498Y-124494180D01*
X141669463Y-124604494D01*
X141748815Y-124701185D01*
X141845506Y-124780537D01*
X141955820Y-124839502D01*
X142075518Y-124875812D01*
X142200000Y-124888072D01*
X143800000Y-124888072D01*
X143924482Y-124875812D01*
X144044180Y-124839502D01*
X144154494Y-124780537D01*
X144251185Y-124701185D01*
X144330537Y-124604494D01*
X144389502Y-124494180D01*
X144407023Y-124436419D01*
X144585241Y-124614637D01*
X144820273Y-124771680D01*
X145081426Y-124879853D01*
X145358665Y-124935000D01*
X145641335Y-124935000D01*
X145918574Y-124879853D01*
X146179727Y-124771680D01*
X146414759Y-124614637D01*
X146500000Y-124529396D01*
X146585241Y-124614637D01*
X146820273Y-124771680D01*
X147081426Y-124879853D01*
X147358665Y-124935000D01*
X147641335Y-124935000D01*
X147918574Y-124879853D01*
X148179727Y-124771680D01*
X148414759Y-124614637D01*
X148536694Y-124492702D01*
X149186903Y-124492702D01*
X149258486Y-124736671D01*
X149513996Y-124857571D01*
X149788184Y-124926300D01*
X150070512Y-124940217D01*
X150350130Y-124898787D01*
X150616292Y-124803603D01*
X150741514Y-124736671D01*
X150746890Y-124718347D01*
X151757952Y-124718347D01*
X153070000Y-126030395D01*
X154382048Y-124718347D01*
X163617952Y-124718347D01*
X164930000Y-126030395D01*
X166242048Y-124718347D01*
X166086038Y-124402786D01*
X165711255Y-124211980D01*
X165306449Y-124097956D01*
X164887176Y-124065098D01*
X164469549Y-124114666D01*
X164069617Y-124244757D01*
X163773962Y-124402786D01*
X163617952Y-124718347D01*
X154382048Y-124718347D01*
X154226038Y-124402786D01*
X153851255Y-124211980D01*
X153446449Y-124097956D01*
X153027176Y-124065098D01*
X152609549Y-124114666D01*
X152209617Y-124244757D01*
X151913962Y-124402786D01*
X151757952Y-124718347D01*
X150746890Y-124718347D01*
X150813097Y-124492702D01*
X150000000Y-123679605D01*
X149186903Y-124492702D01*
X148536694Y-124492702D01*
X148614637Y-124414759D01*
X148748692Y-124214131D01*
X148763329Y-124241514D01*
X149007298Y-124313097D01*
X149820395Y-123500000D01*
X150179605Y-123500000D01*
X150992702Y-124313097D01*
X151236671Y-124241514D01*
X151357571Y-123986004D01*
X151426300Y-123711816D01*
X151440217Y-123429488D01*
X151398787Y-123149870D01*
X151303603Y-122883708D01*
X151236671Y-122758486D01*
X151207750Y-122750000D01*
X166561928Y-122750000D01*
X166561928Y-124250000D01*
X166574188Y-124374482D01*
X166610498Y-124494180D01*
X166669463Y-124604494D01*
X166748815Y-124701185D01*
X166845506Y-124780537D01*
X166955820Y-124839502D01*
X167075518Y-124875812D01*
X167200000Y-124888072D01*
X168800000Y-124888072D01*
X168924482Y-124875812D01*
X169044180Y-124839502D01*
X169154494Y-124780537D01*
X169251185Y-124701185D01*
X169330537Y-124604494D01*
X169389502Y-124494180D01*
X169407023Y-124436419D01*
X169585241Y-124614637D01*
X169820273Y-124771680D01*
X170081426Y-124879853D01*
X170358665Y-124935000D01*
X170641335Y-124935000D01*
X170918574Y-124879853D01*
X171179727Y-124771680D01*
X171414759Y-124614637D01*
X171500000Y-124529396D01*
X171585241Y-124614637D01*
X171820273Y-124771680D01*
X172081426Y-124879853D01*
X172358665Y-124935000D01*
X172641335Y-124935000D01*
X172918574Y-124879853D01*
X173179727Y-124771680D01*
X173414759Y-124614637D01*
X173536694Y-124492702D01*
X174186903Y-124492702D01*
X174258486Y-124736671D01*
X174513996Y-124857571D01*
X174788184Y-124926300D01*
X175070512Y-124940217D01*
X175350130Y-124898787D01*
X175616292Y-124803603D01*
X175741514Y-124736671D01*
X175746890Y-124718347D01*
X176757952Y-124718347D01*
X178070000Y-126030395D01*
X179382048Y-124718347D01*
X179226038Y-124402786D01*
X178851255Y-124211980D01*
X178446449Y-124097956D01*
X178027176Y-124065098D01*
X177609549Y-124114666D01*
X177209617Y-124244757D01*
X176913962Y-124402786D01*
X176757952Y-124718347D01*
X175746890Y-124718347D01*
X175813097Y-124492702D01*
X175000000Y-123679605D01*
X174186903Y-124492702D01*
X173536694Y-124492702D01*
X173614637Y-124414759D01*
X173748692Y-124214131D01*
X173763329Y-124241514D01*
X174007298Y-124313097D01*
X174820395Y-123500000D01*
X175179605Y-123500000D01*
X175992702Y-124313097D01*
X176236671Y-124241514D01*
X176357571Y-123986004D01*
X176426300Y-123711816D01*
X176440217Y-123429488D01*
X176398787Y-123149870D01*
X176303603Y-122883708D01*
X176236671Y-122758486D01*
X175992702Y-122686903D01*
X175179605Y-123500000D01*
X174820395Y-123500000D01*
X174007298Y-122686903D01*
X173763329Y-122758486D01*
X173749676Y-122787341D01*
X173614637Y-122585241D01*
X173536694Y-122507298D01*
X174186903Y-122507298D01*
X175000000Y-123320395D01*
X175813097Y-122507298D01*
X175741514Y-122263329D01*
X175486004Y-122142429D01*
X175211816Y-122073700D01*
X174929488Y-122059783D01*
X174649870Y-122101213D01*
X174383708Y-122196397D01*
X174258486Y-122263329D01*
X174186903Y-122507298D01*
X173536694Y-122507298D01*
X173414759Y-122385363D01*
X173179727Y-122228320D01*
X172918574Y-122120147D01*
X172641335Y-122065000D01*
X172358665Y-122065000D01*
X172081426Y-122120147D01*
X171820273Y-122228320D01*
X171585241Y-122385363D01*
X171500000Y-122470604D01*
X171414759Y-122385363D01*
X171179727Y-122228320D01*
X170918574Y-122120147D01*
X170641335Y-122065000D01*
X170358665Y-122065000D01*
X170081426Y-122120147D01*
X169820273Y-122228320D01*
X169585241Y-122385363D01*
X169407023Y-122563581D01*
X169389502Y-122505820D01*
X169330537Y-122395506D01*
X169251185Y-122298815D01*
X169154494Y-122219463D01*
X169044180Y-122160498D01*
X168924482Y-122124188D01*
X168800000Y-122111928D01*
X167200000Y-122111928D01*
X167075518Y-122124188D01*
X166955820Y-122160498D01*
X166845506Y-122219463D01*
X166748815Y-122298815D01*
X166669463Y-122395506D01*
X166610498Y-122505820D01*
X166574188Y-122625518D01*
X166561928Y-122750000D01*
X151207750Y-122750000D01*
X150992702Y-122686903D01*
X150179605Y-123500000D01*
X149820395Y-123500000D01*
X149007298Y-122686903D01*
X148763329Y-122758486D01*
X148749676Y-122787341D01*
X148614637Y-122585241D01*
X148536694Y-122507298D01*
X149186903Y-122507298D01*
X150000000Y-123320395D01*
X150813097Y-122507298D01*
X150741514Y-122263329D01*
X150486004Y-122142429D01*
X150211816Y-122073700D01*
X149929488Y-122059783D01*
X149649870Y-122101213D01*
X149383708Y-122196397D01*
X149258486Y-122263329D01*
X149186903Y-122507298D01*
X148536694Y-122507298D01*
X148414759Y-122385363D01*
X148179727Y-122228320D01*
X147918574Y-122120147D01*
X147641335Y-122065000D01*
X147358665Y-122065000D01*
X147081426Y-122120147D01*
X146820273Y-122228320D01*
X146585241Y-122385363D01*
X146500000Y-122470604D01*
X146414759Y-122385363D01*
X146179727Y-122228320D01*
X145918574Y-122120147D01*
X145641335Y-122065000D01*
X145358665Y-122065000D01*
X145081426Y-122120147D01*
X144820273Y-122228320D01*
X144585241Y-122385363D01*
X144407023Y-122563581D01*
X144389502Y-122505820D01*
X144330537Y-122395506D01*
X144251185Y-122298815D01*
X144154494Y-122219463D01*
X144044180Y-122160498D01*
X143924482Y-122124188D01*
X143800000Y-122111928D01*
X142200000Y-122111928D01*
X142075518Y-122124188D01*
X141955820Y-122160498D01*
X141845506Y-122219463D01*
X141748815Y-122298815D01*
X141669463Y-122395506D01*
X141610498Y-122505820D01*
X141574188Y-122625518D01*
X141561928Y-122750000D01*
X133207750Y-122750000D01*
X132992702Y-122686903D01*
X132179605Y-123500000D01*
X131820395Y-123500000D01*
X131007298Y-122686903D01*
X130763329Y-122758486D01*
X130749676Y-122787341D01*
X130614637Y-122585241D01*
X130536694Y-122507298D01*
X131186903Y-122507298D01*
X132000000Y-123320395D01*
X132813097Y-122507298D01*
X132741514Y-122263329D01*
X132486004Y-122142429D01*
X132211816Y-122073700D01*
X131929488Y-122059783D01*
X131649870Y-122101213D01*
X131383708Y-122196397D01*
X131258486Y-122263329D01*
X131186903Y-122507298D01*
X130536694Y-122507298D01*
X130414759Y-122385363D01*
X130179727Y-122228320D01*
X129918574Y-122120147D01*
X129641335Y-122065000D01*
X129358665Y-122065000D01*
X129081426Y-122120147D01*
X128820273Y-122228320D01*
X128585241Y-122385363D01*
X128500000Y-122470604D01*
X128414759Y-122385363D01*
X128179727Y-122228320D01*
X127918574Y-122120147D01*
X127641335Y-122065000D01*
X127358665Y-122065000D01*
X127081426Y-122120147D01*
X126820273Y-122228320D01*
X126585241Y-122385363D01*
X126407023Y-122563581D01*
X126389502Y-122505820D01*
X126330537Y-122395506D01*
X126251185Y-122298815D01*
X126154494Y-122219463D01*
X126044180Y-122160498D01*
X125924482Y-122124188D01*
X125800000Y-122111928D01*
X124200000Y-122111928D01*
X124075518Y-122124188D01*
X123955820Y-122160498D01*
X123845506Y-122219463D01*
X123748815Y-122298815D01*
X123669463Y-122395506D01*
X123610498Y-122505820D01*
X123574188Y-122625518D01*
X123561928Y-122750000D01*
X115207750Y-122750000D01*
X114992702Y-122686903D01*
X114179605Y-123500000D01*
X113820395Y-123500000D01*
X113007298Y-122686903D01*
X112763329Y-122758486D01*
X112749676Y-122787341D01*
X112614637Y-122585241D01*
X112536694Y-122507298D01*
X113186903Y-122507298D01*
X114000000Y-123320395D01*
X114813097Y-122507298D01*
X114741514Y-122263329D01*
X114486004Y-122142429D01*
X114211816Y-122073700D01*
X113929488Y-122059783D01*
X113649870Y-122101213D01*
X113383708Y-122196397D01*
X113258486Y-122263329D01*
X113186903Y-122507298D01*
X112536694Y-122507298D01*
X112414759Y-122385363D01*
X112179727Y-122228320D01*
X111918574Y-122120147D01*
X111641335Y-122065000D01*
X111358665Y-122065000D01*
X111081426Y-122120147D01*
X110820273Y-122228320D01*
X110585241Y-122385363D01*
X110500000Y-122470604D01*
X110414759Y-122385363D01*
X110179727Y-122228320D01*
X109918574Y-122120147D01*
X109641335Y-122065000D01*
X109358665Y-122065000D01*
X109081426Y-122120147D01*
X108820273Y-122228320D01*
X108585241Y-122385363D01*
X108407023Y-122563581D01*
X108389502Y-122505820D01*
X108330537Y-122395506D01*
X108251185Y-122298815D01*
X108154494Y-122219463D01*
X108044180Y-122160498D01*
X107924482Y-122124188D01*
X107800000Y-122111928D01*
X106200000Y-122111928D01*
X106075518Y-122124188D01*
X105955820Y-122160498D01*
X105845506Y-122219463D01*
X105748815Y-122298815D01*
X105669463Y-122395506D01*
X105610498Y-122505820D01*
X105574188Y-122625518D01*
X105561928Y-122750000D01*
X97207750Y-122750000D01*
X96992702Y-122686903D01*
X96179605Y-123500000D01*
X95820395Y-123500000D01*
X95007298Y-122686903D01*
X94763329Y-122758486D01*
X94749676Y-122787341D01*
X94614637Y-122585241D01*
X94536694Y-122507298D01*
X95186903Y-122507298D01*
X96000000Y-123320395D01*
X96813097Y-122507298D01*
X96741514Y-122263329D01*
X96486004Y-122142429D01*
X96211816Y-122073700D01*
X95929488Y-122059783D01*
X95649870Y-122101213D01*
X95383708Y-122196397D01*
X95258486Y-122263329D01*
X95186903Y-122507298D01*
X94536694Y-122507298D01*
X94414759Y-122385363D01*
X94179727Y-122228320D01*
X93918574Y-122120147D01*
X93641335Y-122065000D01*
X93358665Y-122065000D01*
X93081426Y-122120147D01*
X92820273Y-122228320D01*
X92585241Y-122385363D01*
X92500000Y-122470604D01*
X92414759Y-122385363D01*
X92179727Y-122228320D01*
X91918574Y-122120147D01*
X91641335Y-122065000D01*
X91358665Y-122065000D01*
X91081426Y-122120147D01*
X90820273Y-122228320D01*
X90585241Y-122385363D01*
X90407023Y-122563581D01*
X90389502Y-122505820D01*
X90330537Y-122395506D01*
X90251185Y-122298815D01*
X90154494Y-122219463D01*
X90044180Y-122160498D01*
X89924482Y-122124188D01*
X89800000Y-122111928D01*
X88200000Y-122111928D01*
X88075518Y-122124188D01*
X87955820Y-122160498D01*
X87845506Y-122219463D01*
X87748815Y-122298815D01*
X87669463Y-122395506D01*
X87610498Y-122505820D01*
X87574188Y-122625518D01*
X87561928Y-122750000D01*
X72207750Y-122750000D01*
X71992702Y-122686903D01*
X71179605Y-123500000D01*
X70820395Y-123500000D01*
X70007298Y-122686903D01*
X69763329Y-122758486D01*
X69749676Y-122787341D01*
X69614637Y-122585241D01*
X69536694Y-122507298D01*
X70186903Y-122507298D01*
X71000000Y-123320395D01*
X71813097Y-122507298D01*
X71741514Y-122263329D01*
X71486004Y-122142429D01*
X71211816Y-122073700D01*
X70929488Y-122059783D01*
X70649870Y-122101213D01*
X70383708Y-122196397D01*
X70258486Y-122263329D01*
X70186903Y-122507298D01*
X69536694Y-122507298D01*
X69414759Y-122385363D01*
X69179727Y-122228320D01*
X68918574Y-122120147D01*
X68641335Y-122065000D01*
X68358665Y-122065000D01*
X68081426Y-122120147D01*
X67820273Y-122228320D01*
X67585241Y-122385363D01*
X67500000Y-122470604D01*
X67414759Y-122385363D01*
X67179727Y-122228320D01*
X66918574Y-122120147D01*
X66641335Y-122065000D01*
X66358665Y-122065000D01*
X66081426Y-122120147D01*
X65820273Y-122228320D01*
X65585241Y-122385363D01*
X65407023Y-122563581D01*
X65389502Y-122505820D01*
X65330537Y-122395506D01*
X65251185Y-122298815D01*
X65154494Y-122219463D01*
X65044180Y-122160498D01*
X64924482Y-122124188D01*
X64800000Y-122111928D01*
X63200000Y-122111928D01*
X63075518Y-122124188D01*
X62955820Y-122160498D01*
X62845506Y-122219463D01*
X62748815Y-122298815D01*
X62669463Y-122395506D01*
X62610498Y-122505820D01*
X62574188Y-122625518D01*
X62561928Y-122750000D01*
X53160000Y-122750000D01*
X53160000Y-120000000D01*
X181361928Y-120000000D01*
X181361928Y-123000000D01*
X181374188Y-123124482D01*
X181410498Y-123244180D01*
X181469463Y-123354494D01*
X181548815Y-123451185D01*
X181645506Y-123530537D01*
X181755820Y-123589502D01*
X181875518Y-123625812D01*
X182000000Y-123638072D01*
X185000000Y-123638072D01*
X185124482Y-123625812D01*
X185244180Y-123589502D01*
X185354494Y-123530537D01*
X185451185Y-123451185D01*
X185530537Y-123354494D01*
X185589502Y-123244180D01*
X185625812Y-123124482D01*
X185638072Y-123000000D01*
X185638072Y-120000000D01*
X185625812Y-119875518D01*
X185589502Y-119755820D01*
X185530537Y-119645506D01*
X185451185Y-119548815D01*
X185354494Y-119469463D01*
X185244180Y-119410498D01*
X185124482Y-119374188D01*
X185000000Y-119361928D01*
X182000000Y-119361928D01*
X181875518Y-119374188D01*
X181755820Y-119410498D01*
X181645506Y-119469463D01*
X181548815Y-119548815D01*
X181469463Y-119645506D01*
X181410498Y-119755820D01*
X181374188Y-119875518D01*
X181361928Y-120000000D01*
X53160000Y-120000000D01*
X53160000Y-117911653D01*
X182187952Y-117911653D01*
X182343962Y-118227214D01*
X182718745Y-118418020D01*
X183123551Y-118532044D01*
X183542824Y-118564902D01*
X183960451Y-118515334D01*
X184360383Y-118385243D01*
X184656038Y-118227214D01*
X184812048Y-117911653D01*
X183500000Y-116599605D01*
X182187952Y-117911653D01*
X53160000Y-117911653D01*
X53160000Y-115991653D01*
X55187952Y-115991653D01*
X55343962Y-116307214D01*
X55718745Y-116498020D01*
X56123551Y-116612044D01*
X56542824Y-116644902D01*
X56960451Y-116595334D01*
X57360383Y-116465243D01*
X57364908Y-116462824D01*
X181355098Y-116462824D01*
X181404666Y-116880451D01*
X181534757Y-117280383D01*
X181692786Y-117576038D01*
X182008347Y-117732048D01*
X183320395Y-116420000D01*
X183679605Y-116420000D01*
X184991653Y-117732048D01*
X185307214Y-117576038D01*
X185498020Y-117201255D01*
X185612044Y-116796449D01*
X185644902Y-116377176D01*
X185595334Y-115959549D01*
X185465243Y-115559617D01*
X185307214Y-115263962D01*
X184991653Y-115107952D01*
X183679605Y-116420000D01*
X183320395Y-116420000D01*
X182008347Y-115107952D01*
X181692786Y-115263962D01*
X181501980Y-115638745D01*
X181387956Y-116043551D01*
X181355098Y-116462824D01*
X57364908Y-116462824D01*
X57656038Y-116307214D01*
X57812048Y-115991653D01*
X56500000Y-114679605D01*
X55187952Y-115991653D01*
X53160000Y-115991653D01*
X53160000Y-114542824D01*
X54355098Y-114542824D01*
X54404666Y-114960451D01*
X54534757Y-115360383D01*
X54692786Y-115656038D01*
X55008347Y-115812048D01*
X56320395Y-114500000D01*
X56679605Y-114500000D01*
X57991653Y-115812048D01*
X58307214Y-115656038D01*
X58498020Y-115281255D01*
X58597425Y-114928347D01*
X182187952Y-114928347D01*
X183500000Y-116240395D01*
X184812048Y-114928347D01*
X184656038Y-114612786D01*
X184281255Y-114421980D01*
X183876449Y-114307956D01*
X183457176Y-114275098D01*
X183039549Y-114324666D01*
X182639617Y-114454757D01*
X182343962Y-114612786D01*
X182187952Y-114928347D01*
X58597425Y-114928347D01*
X58612044Y-114876449D01*
X58644902Y-114457176D01*
X58595334Y-114039549D01*
X58465243Y-113639617D01*
X58307214Y-113343962D01*
X57991653Y-113187952D01*
X56679605Y-114500000D01*
X56320395Y-114500000D01*
X55008347Y-113187952D01*
X54692786Y-113343962D01*
X54501980Y-113718745D01*
X54387956Y-114123551D01*
X54355098Y-114542824D01*
X53160000Y-114542824D01*
X53160000Y-113008347D01*
X55187952Y-113008347D01*
X56500000Y-114320395D01*
X57812048Y-113008347D01*
X57656038Y-112692786D01*
X57281255Y-112501980D01*
X56876449Y-112387956D01*
X56457176Y-112355098D01*
X56039549Y-112404666D01*
X55639617Y-112534757D01*
X55343962Y-112692786D01*
X55187952Y-113008347D01*
X53160000Y-113008347D01*
X53160000Y-107920000D01*
X54361928Y-107920000D01*
X54361928Y-110920000D01*
X54374188Y-111044482D01*
X54410498Y-111164180D01*
X54469463Y-111274494D01*
X54548815Y-111371185D01*
X54645506Y-111450537D01*
X54755820Y-111509502D01*
X54875518Y-111545812D01*
X55000000Y-111558072D01*
X58000000Y-111558072D01*
X58124482Y-111545812D01*
X58244180Y-111509502D01*
X58354494Y-111450537D01*
X58451185Y-111371185D01*
X58530537Y-111274494D01*
X58589502Y-111164180D01*
X58625812Y-111044482D01*
X58638072Y-110920000D01*
X58638072Y-107920000D01*
X58625812Y-107795518D01*
X58589502Y-107675820D01*
X58530537Y-107565506D01*
X58451185Y-107468815D01*
X58354494Y-107389463D01*
X58244180Y-107330498D01*
X58124482Y-107294188D01*
X58000000Y-107281928D01*
X55000000Y-107281928D01*
X54875518Y-107294188D01*
X54755820Y-107330498D01*
X54645506Y-107389463D01*
X54548815Y-107468815D01*
X54469463Y-107565506D01*
X54410498Y-107675820D01*
X54374188Y-107795518D01*
X54361928Y-107920000D01*
X53160000Y-107920000D01*
X53160000Y-103750000D01*
X114123000Y-103750000D01*
X114123000Y-112837213D01*
X114125440Y-112861989D01*
X114132667Y-112885814D01*
X114144403Y-112907770D01*
X114160197Y-112927016D01*
X114179443Y-112942810D01*
X114201399Y-112954546D01*
X114225224Y-112961773D01*
X114250000Y-112964213D01*
X122750000Y-112964213D01*
X122774776Y-112961773D01*
X122798601Y-112954546D01*
X122820557Y-112942810D01*
X122839803Y-112927016D01*
X122855597Y-112907770D01*
X122867333Y-112885814D01*
X122874560Y-112861989D01*
X122877000Y-112837213D01*
X122877000Y-111129721D01*
X181365000Y-111129721D01*
X181365000Y-111550279D01*
X181447047Y-111962756D01*
X181607988Y-112351302D01*
X181841637Y-112700983D01*
X182139017Y-112998363D01*
X182488698Y-113232012D01*
X182877244Y-113392953D01*
X183289721Y-113475000D01*
X183710279Y-113475000D01*
X184122756Y-113392953D01*
X184511302Y-113232012D01*
X184860983Y-112998363D01*
X185158363Y-112700983D01*
X185392012Y-112351302D01*
X185552953Y-111962756D01*
X185635000Y-111550279D01*
X185635000Y-111129721D01*
X185552953Y-110717244D01*
X185392012Y-110328698D01*
X185158363Y-109979017D01*
X184860983Y-109681637D01*
X184511302Y-109447988D01*
X184122756Y-109287047D01*
X183710279Y-109205000D01*
X183289721Y-109205000D01*
X182877244Y-109287047D01*
X182488698Y-109447988D01*
X182139017Y-109681637D01*
X181841637Y-109979017D01*
X181607988Y-110328698D01*
X181447047Y-110717244D01*
X181365000Y-111129721D01*
X122877000Y-111129721D01*
X122877000Y-107751653D01*
X182187952Y-107751653D01*
X182343962Y-108067214D01*
X182718745Y-108258020D01*
X183123551Y-108372044D01*
X183542824Y-108404902D01*
X183960451Y-108355334D01*
X184360383Y-108225243D01*
X184656038Y-108067214D01*
X184812048Y-107751653D01*
X183500000Y-106439605D01*
X182187952Y-107751653D01*
X122877000Y-107751653D01*
X122877000Y-106302824D01*
X181355098Y-106302824D01*
X181404666Y-106720451D01*
X181534757Y-107120383D01*
X181692786Y-107416038D01*
X182008347Y-107572048D01*
X183320395Y-106260000D01*
X183679605Y-106260000D01*
X184991653Y-107572048D01*
X185307214Y-107416038D01*
X185498020Y-107041255D01*
X185612044Y-106636449D01*
X185644902Y-106217176D01*
X185595334Y-105799549D01*
X185465243Y-105399617D01*
X185307214Y-105103962D01*
X184991653Y-104947952D01*
X183679605Y-106260000D01*
X183320395Y-106260000D01*
X182008347Y-104947952D01*
X181692786Y-105103962D01*
X181501980Y-105478745D01*
X181387956Y-105883551D01*
X181355098Y-106302824D01*
X122877000Y-106302824D01*
X122877000Y-104768347D01*
X182187952Y-104768347D01*
X183500000Y-106080395D01*
X184812048Y-104768347D01*
X184656038Y-104452786D01*
X184281255Y-104261980D01*
X183876449Y-104147956D01*
X183457176Y-104115098D01*
X183039549Y-104164666D01*
X182639617Y-104294757D01*
X182343962Y-104452786D01*
X182187952Y-104768347D01*
X122877000Y-104768347D01*
X122877000Y-103750000D01*
X122874560Y-103725224D01*
X122867333Y-103701399D01*
X122855597Y-103679443D01*
X122839803Y-103660197D01*
X122820557Y-103644403D01*
X122798601Y-103632667D01*
X122774776Y-103625440D01*
X122750000Y-103623000D01*
X114250000Y-103623000D01*
X114225224Y-103625440D01*
X114201399Y-103632667D01*
X114179443Y-103644403D01*
X114160197Y-103660197D01*
X114144403Y-103679443D01*
X114132667Y-103701399D01*
X114125440Y-103725224D01*
X114123000Y-103750000D01*
X53160000Y-103750000D01*
X53160000Y-100969721D01*
X181365000Y-100969721D01*
X181365000Y-101390279D01*
X181447047Y-101802756D01*
X181607988Y-102191302D01*
X181841637Y-102540983D01*
X182139017Y-102838363D01*
X182488698Y-103072012D01*
X182877244Y-103232953D01*
X183289721Y-103315000D01*
X183710279Y-103315000D01*
X184122756Y-103232953D01*
X184511302Y-103072012D01*
X184860983Y-102838363D01*
X185158363Y-102540983D01*
X185392012Y-102191302D01*
X185552953Y-101802756D01*
X185635000Y-101390279D01*
X185635000Y-100969721D01*
X185552953Y-100557244D01*
X185392012Y-100168698D01*
X185158363Y-99819017D01*
X184860983Y-99521637D01*
X184511302Y-99287988D01*
X184122756Y-99127047D01*
X183710279Y-99045000D01*
X183289721Y-99045000D01*
X182877244Y-99127047D01*
X182488698Y-99287988D01*
X182139017Y-99521637D01*
X181841637Y-99819017D01*
X181607988Y-100168698D01*
X181447047Y-100557244D01*
X181365000Y-100969721D01*
X53160000Y-100969721D01*
X53160000Y-97398061D01*
X60215000Y-97398061D01*
X60215000Y-97601939D01*
X60254774Y-97801898D01*
X60332795Y-97990256D01*
X60446063Y-98159774D01*
X60590226Y-98303937D01*
X60759744Y-98417205D01*
X60948102Y-98495226D01*
X61148061Y-98535000D01*
X61210199Y-98535000D01*
X62186200Y-99511002D01*
X62209999Y-99540001D01*
X62325724Y-99634974D01*
X62457753Y-99705546D01*
X62601014Y-99749003D01*
X62712667Y-99760000D01*
X62712676Y-99760000D01*
X62749999Y-99763676D01*
X62787322Y-99760000D01*
X66185198Y-99760000D01*
X66785548Y-100360351D01*
X66809342Y-100389344D01*
X66838335Y-100413138D01*
X66838339Y-100413142D01*
X66909028Y-100471154D01*
X66925067Y-100484317D01*
X67057096Y-100554889D01*
X67200357Y-100598346D01*
X67312010Y-100609343D01*
X67312019Y-100609343D01*
X67349342Y-100613019D01*
X67386665Y-100609343D01*
X67388142Y-100609343D01*
X67432079Y-100653280D01*
X67601597Y-100766548D01*
X67789955Y-100844569D01*
X67989914Y-100884343D01*
X68193792Y-100884343D01*
X68393751Y-100844569D01*
X68582109Y-100766548D01*
X68751627Y-100653280D01*
X68895790Y-100509117D01*
X69009058Y-100339599D01*
X69087079Y-100151241D01*
X69126853Y-99951282D01*
X69126853Y-99747404D01*
X69087079Y-99547445D01*
X69009058Y-99359087D01*
X68895790Y-99189569D01*
X68751627Y-99045406D01*
X68582109Y-98932138D01*
X68393751Y-98854117D01*
X68193792Y-98814343D01*
X67989914Y-98814343D01*
X67789955Y-98854117D01*
X67601597Y-98932138D01*
X67544854Y-98970052D01*
X67063803Y-98489002D01*
X67040001Y-98459999D01*
X66924276Y-98365026D01*
X66792247Y-98294454D01*
X66648986Y-98250997D01*
X66537333Y-98240000D01*
X66537322Y-98240000D01*
X66500000Y-98236324D01*
X66462678Y-98240000D01*
X63064802Y-98240000D01*
X62285000Y-97460199D01*
X62285000Y-97398061D01*
X62245226Y-97198102D01*
X62167205Y-97009744D01*
X62053937Y-96840226D01*
X61909774Y-96696063D01*
X61740256Y-96582795D01*
X61551898Y-96504774D01*
X61351939Y-96465000D01*
X61148061Y-96465000D01*
X60948102Y-96504774D01*
X60759744Y-96582795D01*
X60590226Y-96696063D01*
X60446063Y-96840226D01*
X60332795Y-97009744D01*
X60254774Y-97198102D01*
X60215000Y-97398061D01*
X53160000Y-97398061D01*
X53160000Y-94510378D01*
X53225869Y-94841523D01*
X53443346Y-95366560D01*
X53759074Y-95839080D01*
X54160920Y-96240926D01*
X54633440Y-96556654D01*
X55158477Y-96774131D01*
X55715852Y-96885000D01*
X56284148Y-96885000D01*
X56841523Y-96774131D01*
X57366560Y-96556654D01*
X57839080Y-96240926D01*
X58240926Y-95839080D01*
X58556654Y-95366560D01*
X58774131Y-94841523D01*
X58871901Y-94350000D01*
X109811928Y-94350000D01*
X109815000Y-94964250D01*
X109973750Y-95123000D01*
X110281658Y-95123000D01*
X110280141Y-95193807D01*
X110277784Y-95196164D01*
X110278937Y-95250000D01*
X110277784Y-95303836D01*
X110280141Y-95306193D01*
X110281658Y-95377000D01*
X109973750Y-95377000D01*
X109815000Y-95535750D01*
X109811928Y-96150000D01*
X109824188Y-96274482D01*
X109860498Y-96394180D01*
X109919463Y-96504494D01*
X109998815Y-96601185D01*
X110095506Y-96680537D01*
X110205820Y-96739502D01*
X110325518Y-96775812D01*
X110450000Y-96788072D01*
X110964250Y-96785000D01*
X111026416Y-96722834D01*
X111118174Y-96684827D01*
X111119351Y-96629899D01*
X111123000Y-96626250D01*
X111123000Y-96320484D01*
X111203836Y-96322216D01*
X111250000Y-96276052D01*
X111296164Y-96322216D01*
X111377000Y-96320484D01*
X111377000Y-96626250D01*
X111380649Y-96629899D01*
X111381826Y-96684827D01*
X111473344Y-96722594D01*
X111535750Y-96785000D01*
X112050000Y-96788072D01*
X112174482Y-96775812D01*
X112294180Y-96739502D01*
X112404494Y-96680537D01*
X112501185Y-96601185D01*
X112580537Y-96504494D01*
X112639502Y-96394180D01*
X112675812Y-96274482D01*
X112688072Y-96150000D01*
X112685000Y-95535750D01*
X112526250Y-95377000D01*
X112218342Y-95377000D01*
X112219859Y-95306193D01*
X112222216Y-95303836D01*
X112221063Y-95250000D01*
X112222216Y-95196164D01*
X112219859Y-95193807D01*
X112218342Y-95123000D01*
X112526250Y-95123000D01*
X112685000Y-94964250D01*
X112688072Y-94350000D01*
X112675812Y-94225518D01*
X112639502Y-94105820D01*
X112580537Y-93995506D01*
X112501185Y-93898815D01*
X112404494Y-93819463D01*
X112294180Y-93760498D01*
X112174482Y-93724188D01*
X112050000Y-93711928D01*
X111535750Y-93715000D01*
X111473584Y-93777166D01*
X111381826Y-93815173D01*
X111380649Y-93870101D01*
X111377000Y-93873750D01*
X111377000Y-94179516D01*
X111296164Y-94177784D01*
X111250000Y-94223948D01*
X111203836Y-94177784D01*
X111123000Y-94179516D01*
X111123000Y-93873750D01*
X111119351Y-93870101D01*
X111118174Y-93815173D01*
X111026656Y-93777406D01*
X110964250Y-93715000D01*
X110450000Y-93711928D01*
X110325518Y-93724188D01*
X110205820Y-93760498D01*
X110095506Y-93819463D01*
X109998815Y-93898815D01*
X109919463Y-93995506D01*
X109860498Y-94105820D01*
X109824188Y-94225518D01*
X109811928Y-94350000D01*
X58871901Y-94350000D01*
X58885000Y-94284148D01*
X58885000Y-93715852D01*
X58774131Y-93158477D01*
X58556654Y-92633440D01*
X58240926Y-92160920D01*
X57839080Y-91759074D01*
X57366560Y-91443346D01*
X56841523Y-91225869D01*
X56510378Y-91160000D01*
X183489622Y-91160000D01*
X183158477Y-91225869D01*
G37*
X183158477Y-91225869D02*
X182633440Y-91443346D01*
X182160920Y-91759074D01*
X181759074Y-92160920D01*
X181443346Y-92633440D01*
X181225869Y-93158477D01*
X181115000Y-93715852D01*
X181115000Y-94284148D01*
X181225869Y-94841523D01*
X181443346Y-95366560D01*
X181759074Y-95839080D01*
X182160920Y-96240926D01*
X182633440Y-96556654D01*
X183158477Y-96774131D01*
X183715852Y-96885000D01*
X184284148Y-96885000D01*
X184841523Y-96774131D01*
X185366560Y-96556654D01*
X185839080Y-96240926D01*
X186240926Y-95839080D01*
X186556654Y-95366560D01*
X186774131Y-94841523D01*
X186840001Y-94510373D01*
X186840000Y-128489622D01*
X186774131Y-128158477D01*
X186556654Y-127633440D01*
X186240926Y-127160920D01*
X185839080Y-126759074D01*
X185366560Y-126443346D01*
X184841523Y-126225869D01*
X184284148Y-126115000D01*
X183715852Y-126115000D01*
X183158477Y-126225869D01*
X182633440Y-126443346D01*
X182160920Y-126759074D01*
X181759074Y-127160920D01*
X181443346Y-127633440D01*
X181225869Y-128158477D01*
X181115000Y-128715852D01*
X181115000Y-129284148D01*
X181225869Y-129841523D01*
X181443346Y-130366560D01*
X181759074Y-130839080D01*
X182160920Y-131240926D01*
X182633440Y-131556654D01*
X183158477Y-131774131D01*
X183489622Y-131840000D01*
X56510378Y-131840000D01*
X56841523Y-131774131D01*
X57366560Y-131556654D01*
X57839080Y-131240926D01*
X58240926Y-130839080D01*
X58556654Y-130366560D01*
X58774131Y-129841523D01*
X58885000Y-129284148D01*
X58885000Y-128715852D01*
X58774131Y-128158477D01*
X58584909Y-127701653D01*
X59617952Y-127701653D01*
X59773962Y-128017214D01*
X60148745Y-128208020D01*
X60553551Y-128322044D01*
X60972824Y-128354902D01*
X61390451Y-128305334D01*
X61790383Y-128175243D01*
X62086038Y-128017214D01*
X62242048Y-127701653D01*
X72757952Y-127701653D01*
X72913962Y-128017214D01*
X73288745Y-128208020D01*
X73693551Y-128322044D01*
X74112824Y-128354902D01*
X74530451Y-128305334D01*
X74930383Y-128175243D01*
X75226038Y-128017214D01*
X75382048Y-127701653D01*
X84617952Y-127701653D01*
X84773962Y-128017214D01*
X85148745Y-128208020D01*
X85553551Y-128322044D01*
X85972824Y-128354902D01*
X86390451Y-128305334D01*
X86790383Y-128175243D01*
X87086038Y-128017214D01*
X87242048Y-127701653D01*
X97757952Y-127701653D01*
X97913962Y-128017214D01*
X98288745Y-128208020D01*
X98693551Y-128322044D01*
X99112824Y-128354902D01*
X99530451Y-128305334D01*
X99930383Y-128175243D01*
X100226038Y-128017214D01*
X100382048Y-127701653D01*
X102617952Y-127701653D01*
X102773962Y-128017214D01*
X103148745Y-128208020D01*
X103553551Y-128322044D01*
X103972824Y-128354902D01*
X104390451Y-128305334D01*
X104790383Y-128175243D01*
X105086038Y-128017214D01*
X105242048Y-127701653D01*
X115757952Y-127701653D01*
X115913962Y-128017214D01*
X116288745Y-128208020D01*
X116693551Y-128322044D01*
X117112824Y-128354902D01*
X117530451Y-128305334D01*
X117930383Y-128175243D01*
X118226038Y-128017214D01*
X118382048Y-127701653D01*
X120617952Y-127701653D01*
X120773962Y-128017214D01*
X121148745Y-128208020D01*
X121553551Y-128322044D01*
X121972824Y-128354902D01*
X122390451Y-128305334D01*
X122790383Y-128175243D01*
X123086038Y-128017214D01*
X123242048Y-127701653D01*
X133757952Y-127701653D01*
X133913962Y-128017214D01*
X134288745Y-128208020D01*
X134693551Y-128322044D01*
X135112824Y-128354902D01*
X135530451Y-128305334D01*
X135930383Y-128175243D01*
X136226038Y-128017214D01*
X136382048Y-127701653D01*
X138617952Y-127701653D01*
X138773962Y-128017214D01*
X139148745Y-128208020D01*
X139553551Y-128322044D01*
X139972824Y-128354902D01*
X140390451Y-128305334D01*
X140790383Y-128175243D01*
X141086038Y-128017214D01*
X141242048Y-127701653D01*
X151757952Y-127701653D01*
X151913962Y-128017214D01*
X152288745Y-128208020D01*
X152693551Y-128322044D01*
X153112824Y-128354902D01*
X153530451Y-128305334D01*
X153930383Y-128175243D01*
X154226038Y-128017214D01*
X154382048Y-127701653D01*
X163617952Y-127701653D01*
X163773962Y-128017214D01*
X164148745Y-128208020D01*
X164553551Y-128322044D01*
X164972824Y-128354902D01*
X165390451Y-128305334D01*
X165790383Y-128175243D01*
X166086038Y-128017214D01*
X166242048Y-127701653D01*
X176757952Y-127701653D01*
X176913962Y-128017214D01*
X177288745Y-128208020D01*
X177693551Y-128322044D01*
X178112824Y-128354902D01*
X178530451Y-128305334D01*
X178930383Y-128175243D01*
X179226038Y-128017214D01*
X179382048Y-127701653D01*
X178070000Y-126389605D01*
X176757952Y-127701653D01*
X166242048Y-127701653D01*
X164930000Y-126389605D01*
X163617952Y-127701653D01*
X154382048Y-127701653D01*
X153070000Y-126389605D01*
X151757952Y-127701653D01*
X141242048Y-127701653D01*
X139930000Y-126389605D01*
X138617952Y-127701653D01*
X136382048Y-127701653D01*
X135070000Y-126389605D01*
X133757952Y-127701653D01*
X123242048Y-127701653D01*
X121930000Y-126389605D01*
X120617952Y-127701653D01*
X118382048Y-127701653D01*
X117070000Y-126389605D01*
X115757952Y-127701653D01*
X105242048Y-127701653D01*
X103930000Y-126389605D01*
X102617952Y-127701653D01*
X100382048Y-127701653D01*
X99070000Y-126389605D01*
X97757952Y-127701653D01*
X87242048Y-127701653D01*
X85930000Y-126389605D01*
X84617952Y-127701653D01*
X75382048Y-127701653D01*
X74070000Y-126389605D01*
X72757952Y-127701653D01*
X62242048Y-127701653D01*
X60930000Y-126389605D01*
X59617952Y-127701653D01*
X58584909Y-127701653D01*
X58556654Y-127633440D01*
X58240926Y-127160920D01*
X57839080Y-126759074D01*
X57366560Y-126443346D01*
X56906599Y-126252824D01*
X58785098Y-126252824D01*
X58834666Y-126670451D01*
X58964757Y-127070383D01*
X59122786Y-127366038D01*
X59438347Y-127522048D01*
X60750395Y-126210000D01*
X61109605Y-126210000D01*
X62421653Y-127522048D01*
X62737214Y-127366038D01*
X62928020Y-126991255D01*
X63042044Y-126586449D01*
X63068189Y-126252824D01*
X71925098Y-126252824D01*
X71974666Y-126670451D01*
X72104757Y-127070383D01*
X72262786Y-127366038D01*
X72578347Y-127522048D01*
X73890395Y-126210000D01*
X74249605Y-126210000D01*
X75561653Y-127522048D01*
X75877214Y-127366038D01*
X76068020Y-126991255D01*
X76182044Y-126586449D01*
X76208189Y-126252824D01*
X83785098Y-126252824D01*
X83834666Y-126670451D01*
X83964757Y-127070383D01*
X84122786Y-127366038D01*
X84438347Y-127522048D01*
X85750395Y-126210000D01*
X86109605Y-126210000D01*
X87421653Y-127522048D01*
X87737214Y-127366038D01*
X87928020Y-126991255D01*
X88042044Y-126586449D01*
X88068189Y-126252824D01*
X96925098Y-126252824D01*
X96974666Y-126670451D01*
X97104757Y-127070383D01*
X97262786Y-127366038D01*
X97578347Y-127522048D01*
X98890395Y-126210000D01*
X99249605Y-126210000D01*
X100561653Y-127522048D01*
X100877214Y-127366038D01*
X101068020Y-126991255D01*
X101182044Y-126586449D01*
X101208189Y-126252824D01*
X101785098Y-126252824D01*
X101834666Y-126670451D01*
X101964757Y-127070383D01*
X102122786Y-127366038D01*
X102438347Y-127522048D01*
X103750395Y-126210000D01*
X104109605Y-126210000D01*
X105421653Y-127522048D01*
X105737214Y-127366038D01*
X105928020Y-126991255D01*
X106042044Y-126586449D01*
X106068189Y-126252824D01*
X114925098Y-126252824D01*
X114974666Y-126670451D01*
X115104757Y-127070383D01*
X115262786Y-127366038D01*
X115578347Y-127522048D01*
X116890395Y-126210000D01*
X117249605Y-126210000D01*
X118561653Y-127522048D01*
X118877214Y-127366038D01*
X119068020Y-126991255D01*
X119182044Y-126586449D01*
X119208189Y-126252824D01*
X119785098Y-126252824D01*
X119834666Y-126670451D01*
X119964757Y-127070383D01*
X120122786Y-127366038D01*
X120438347Y-127522048D01*
X121750395Y-126210000D01*
X122109605Y-126210000D01*
X123421653Y-127522048D01*
X123737214Y-127366038D01*
X123928020Y-126991255D01*
X124042044Y-126586449D01*
X124068189Y-126252824D01*
X132925098Y-126252824D01*
X132974666Y-126670451D01*
X133104757Y-127070383D01*
X133262786Y-127366038D01*
X133578347Y-127522048D01*
X134890395Y-126210000D01*
X135249605Y-126210000D01*
X136561653Y-127522048D01*
X136877214Y-127366038D01*
X137068020Y-126991255D01*
X137182044Y-126586449D01*
X137208189Y-126252824D01*
X137785098Y-126252824D01*
X137834666Y-126670451D01*
X137964757Y-127070383D01*
X138122786Y-127366038D01*
X138438347Y-127522048D01*
X139750395Y-126210000D01*
X140109605Y-126210000D01*
X141421653Y-127522048D01*
X141737214Y-127366038D01*
X141928020Y-126991255D01*
X142042044Y-126586449D01*
X142068189Y-126252824D01*
X150925098Y-126252824D01*
X150974666Y-126670451D01*
X151104757Y-127070383D01*
X151262786Y-127366038D01*
X151578347Y-127522048D01*
X152890395Y-126210000D01*
X153249605Y-126210000D01*
X154561653Y-127522048D01*
X154877214Y-127366038D01*
X155068020Y-126991255D01*
X155182044Y-126586449D01*
X155208189Y-126252824D01*
X162785098Y-126252824D01*
X162834666Y-126670451D01*
X162964757Y-127070383D01*
X163122786Y-127366038D01*
X163438347Y-127522048D01*
X164750395Y-126210000D01*
X165109605Y-126210000D01*
X166421653Y-127522048D01*
X166737214Y-127366038D01*
X166928020Y-126991255D01*
X167042044Y-126586449D01*
X167068189Y-126252824D01*
X175925098Y-126252824D01*
X175974666Y-126670451D01*
X176104757Y-127070383D01*
X176262786Y-127366038D01*
X176578347Y-127522048D01*
X177890395Y-126210000D01*
X178249605Y-126210000D01*
X179561653Y-127522048D01*
X179877214Y-127366038D01*
X180068020Y-126991255D01*
X180182044Y-126586449D01*
X180214902Y-126167176D01*
X180165334Y-125749549D01*
X180035243Y-125349617D01*
X179877214Y-125053962D01*
X179561653Y-124897952D01*
X178249605Y-126210000D01*
X177890395Y-126210000D01*
X176578347Y-124897952D01*
X176262786Y-125053962D01*
X176071980Y-125428745D01*
X175957956Y-125833551D01*
X175925098Y-126252824D01*
X167068189Y-126252824D01*
X167074902Y-126167176D01*
X167025334Y-125749549D01*
X166895243Y-125349617D01*
X166737214Y-125053962D01*
X166421653Y-124897952D01*
X165109605Y-126210000D01*
X164750395Y-126210000D01*
X163438347Y-124897952D01*
X163122786Y-125053962D01*
X162931980Y-125428745D01*
X162817956Y-125833551D01*
X162785098Y-126252824D01*
X155208189Y-126252824D01*
X155214902Y-126167176D01*
X155165334Y-125749549D01*
X155035243Y-125349617D01*
X154877214Y-125053962D01*
X154561653Y-124897952D01*
X153249605Y-126210000D01*
X152890395Y-126210000D01*
X151578347Y-124897952D01*
X151262786Y-125053962D01*
X151071980Y-125428745D01*
X150957956Y-125833551D01*
X150925098Y-126252824D01*
X142068189Y-126252824D01*
X142074902Y-126167176D01*
X142025334Y-125749549D01*
X141895243Y-125349617D01*
X141737214Y-125053962D01*
X141421653Y-124897952D01*
X140109605Y-126210000D01*
X139750395Y-126210000D01*
X138438347Y-124897952D01*
X138122786Y-125053962D01*
X137931980Y-125428745D01*
X137817956Y-125833551D01*
X137785098Y-126252824D01*
X137208189Y-126252824D01*
X137214902Y-126167176D01*
X137165334Y-125749549D01*
X137035243Y-125349617D01*
X136877214Y-125053962D01*
X136561653Y-124897952D01*
X135249605Y-126210000D01*
X134890395Y-126210000D01*
X133578347Y-124897952D01*
X133262786Y-125053962D01*
X133071980Y-125428745D01*
X132957956Y-125833551D01*
X132925098Y-126252824D01*
X124068189Y-126252824D01*
X124074902Y-126167176D01*
X124025334Y-125749549D01*
X123895243Y-125349617D01*
X123737214Y-125053962D01*
X123421653Y-124897952D01*
X122109605Y-126210000D01*
X121750395Y-126210000D01*
X120438347Y-124897952D01*
X120122786Y-125053962D01*
X119931980Y-125428745D01*
X119817956Y-125833551D01*
X119785098Y-126252824D01*
X119208189Y-126252824D01*
X119214902Y-126167176D01*
X119165334Y-125749549D01*
X119035243Y-125349617D01*
X118877214Y-125053962D01*
X118561653Y-124897952D01*
X117249605Y-126210000D01*
X116890395Y-126210000D01*
X115578347Y-124897952D01*
X115262786Y-125053962D01*
X115071980Y-125428745D01*
X114957956Y-125833551D01*
X114925098Y-126252824D01*
X106068189Y-126252824D01*
X106074902Y-126167176D01*
X106025334Y-125749549D01*
X105895243Y-125349617D01*
X105737214Y-125053962D01*
X105421653Y-124897952D01*
X104109605Y-126210000D01*
X103750395Y-126210000D01*
X102438347Y-124897952D01*
X102122786Y-125053962D01*
X101931980Y-125428745D01*
X101817956Y-125833551D01*
X101785098Y-126252824D01*
X101208189Y-126252824D01*
X101214902Y-126167176D01*
X101165334Y-125749549D01*
X101035243Y-125349617D01*
X100877214Y-125053962D01*
X100561653Y-124897952D01*
X99249605Y-126210000D01*
X98890395Y-126210000D01*
X97578347Y-124897952D01*
X97262786Y-125053962D01*
X97071980Y-125428745D01*
X96957956Y-125833551D01*
X96925098Y-126252824D01*
X88068189Y-126252824D01*
X88074902Y-126167176D01*
X88025334Y-125749549D01*
X87895243Y-125349617D01*
X87737214Y-125053962D01*
X87421653Y-124897952D01*
X86109605Y-126210000D01*
X85750395Y-126210000D01*
X84438347Y-124897952D01*
X84122786Y-125053962D01*
X83931980Y-125428745D01*
X83817956Y-125833551D01*
X83785098Y-126252824D01*
X76208189Y-126252824D01*
X76214902Y-126167176D01*
X76165334Y-125749549D01*
X76035243Y-125349617D01*
X75877214Y-125053962D01*
X75561653Y-124897952D01*
X74249605Y-126210000D01*
X73890395Y-126210000D01*
X72578347Y-124897952D01*
X72262786Y-125053962D01*
X72071980Y-125428745D01*
X71957956Y-125833551D01*
X71925098Y-126252824D01*
X63068189Y-126252824D01*
X63074902Y-126167176D01*
X63025334Y-125749549D01*
X62895243Y-125349617D01*
X62737214Y-125053962D01*
X62421653Y-124897952D01*
X61109605Y-126210000D01*
X60750395Y-126210000D01*
X59438347Y-124897952D01*
X59122786Y-125053962D01*
X58931980Y-125428745D01*
X58817956Y-125833551D01*
X58785098Y-126252824D01*
X56906599Y-126252824D01*
X56841523Y-126225869D01*
X56284148Y-126115000D01*
X55715852Y-126115000D01*
X55158477Y-126225869D01*
X54633440Y-126443346D01*
X54160920Y-126759074D01*
X53759074Y-127160920D01*
X53443346Y-127633440D01*
X53225869Y-128158477D01*
X53160000Y-128489622D01*
X53160000Y-124718347D01*
X59617952Y-124718347D01*
X60930000Y-126030395D01*
X62242048Y-124718347D01*
X62086038Y-124402786D01*
X61711255Y-124211980D01*
X61306449Y-124097956D01*
X60887176Y-124065098D01*
X60469549Y-124114666D01*
X60069617Y-124244757D01*
X59773962Y-124402786D01*
X59617952Y-124718347D01*
X53160000Y-124718347D01*
X53160000Y-122750000D01*
X62561928Y-122750000D01*
X62561928Y-124250000D01*
X62574188Y-124374482D01*
X62610498Y-124494180D01*
X62669463Y-124604494D01*
X62748815Y-124701185D01*
X62845506Y-124780537D01*
X62955820Y-124839502D01*
X63075518Y-124875812D01*
X63200000Y-124888072D01*
X64800000Y-124888072D01*
X64924482Y-124875812D01*
X65044180Y-124839502D01*
X65154494Y-124780537D01*
X65251185Y-124701185D01*
X65330537Y-124604494D01*
X65389502Y-124494180D01*
X65407023Y-124436419D01*
X65585241Y-124614637D01*
X65820273Y-124771680D01*
X66081426Y-124879853D01*
X66358665Y-124935000D01*
X66641335Y-124935000D01*
X66918574Y-124879853D01*
X67179727Y-124771680D01*
X67414759Y-124614637D01*
X67500000Y-124529396D01*
X67585241Y-124614637D01*
X67820273Y-124771680D01*
X68081426Y-124879853D01*
X68358665Y-124935000D01*
X68641335Y-124935000D01*
X68918574Y-124879853D01*
X69179727Y-124771680D01*
X69414759Y-124614637D01*
X69536694Y-124492702D01*
X70186903Y-124492702D01*
X70258486Y-124736671D01*
X70513996Y-124857571D01*
X70788184Y-124926300D01*
X71070512Y-124940217D01*
X71350130Y-124898787D01*
X71616292Y-124803603D01*
X71741514Y-124736671D01*
X71746890Y-124718347D01*
X72757952Y-124718347D01*
X74070000Y-126030395D01*
X75382048Y-124718347D01*
X84617952Y-124718347D01*
X85930000Y-126030395D01*
X87242048Y-124718347D01*
X87086038Y-124402786D01*
X86711255Y-124211980D01*
X86306449Y-124097956D01*
X85887176Y-124065098D01*
X85469549Y-124114666D01*
X85069617Y-124244757D01*
X84773962Y-124402786D01*
X84617952Y-124718347D01*
X75382048Y-124718347D01*
X75226038Y-124402786D01*
X74851255Y-124211980D01*
X74446449Y-124097956D01*
X74027176Y-124065098D01*
X73609549Y-124114666D01*
X73209617Y-124244757D01*
X72913962Y-124402786D01*
X72757952Y-124718347D01*
X71746890Y-124718347D01*
X71813097Y-124492702D01*
X71000000Y-123679605D01*
X70186903Y-124492702D01*
X69536694Y-124492702D01*
X69614637Y-124414759D01*
X69748692Y-124214131D01*
X69763329Y-124241514D01*
X70007298Y-124313097D01*
X70820395Y-123500000D01*
X71179605Y-123500000D01*
X71992702Y-124313097D01*
X72236671Y-124241514D01*
X72357571Y-123986004D01*
X72426300Y-123711816D01*
X72440217Y-123429488D01*
X72398787Y-123149870D01*
X72303603Y-122883708D01*
X72236671Y-122758486D01*
X72207750Y-122750000D01*
X87561928Y-122750000D01*
X87561928Y-124250000D01*
X87574188Y-124374482D01*
X87610498Y-124494180D01*
X87669463Y-124604494D01*
X87748815Y-124701185D01*
X87845506Y-124780537D01*
X87955820Y-124839502D01*
X88075518Y-124875812D01*
X88200000Y-124888072D01*
X89800000Y-124888072D01*
X89924482Y-124875812D01*
X90044180Y-124839502D01*
X90154494Y-124780537D01*
X90251185Y-124701185D01*
X90330537Y-124604494D01*
X90389502Y-124494180D01*
X90407023Y-124436419D01*
X90585241Y-124614637D01*
X90820273Y-124771680D01*
X91081426Y-124879853D01*
X91358665Y-124935000D01*
X91641335Y-124935000D01*
X91918574Y-124879853D01*
X92179727Y-124771680D01*
X92414759Y-124614637D01*
X92500000Y-124529396D01*
X92585241Y-124614637D01*
X92820273Y-124771680D01*
X93081426Y-124879853D01*
X93358665Y-124935000D01*
X93641335Y-124935000D01*
X93918574Y-124879853D01*
X94179727Y-124771680D01*
X94414759Y-124614637D01*
X94536694Y-124492702D01*
X95186903Y-124492702D01*
X95258486Y-124736671D01*
X95513996Y-124857571D01*
X95788184Y-124926300D01*
X96070512Y-124940217D01*
X96350130Y-124898787D01*
X96616292Y-124803603D01*
X96741514Y-124736671D01*
X96746890Y-124718347D01*
X97757952Y-124718347D01*
X99070000Y-126030395D01*
X100382048Y-124718347D01*
X102617952Y-124718347D01*
X103930000Y-126030395D01*
X105242048Y-124718347D01*
X105086038Y-124402786D01*
X104711255Y-124211980D01*
X104306449Y-124097956D01*
X103887176Y-124065098D01*
X103469549Y-124114666D01*
X103069617Y-124244757D01*
X102773962Y-124402786D01*
X102617952Y-124718347D01*
X100382048Y-124718347D01*
X100226038Y-124402786D01*
X99851255Y-124211980D01*
X99446449Y-124097956D01*
X99027176Y-124065098D01*
X98609549Y-124114666D01*
X98209617Y-124244757D01*
X97913962Y-124402786D01*
X97757952Y-124718347D01*
X96746890Y-124718347D01*
X96813097Y-124492702D01*
X96000000Y-123679605D01*
X95186903Y-124492702D01*
X94536694Y-124492702D01*
X94614637Y-124414759D01*
X94748692Y-124214131D01*
X94763329Y-124241514D01*
X95007298Y-124313097D01*
X95820395Y-123500000D01*
X96179605Y-123500000D01*
X96992702Y-124313097D01*
X97236671Y-124241514D01*
X97357571Y-123986004D01*
X97426300Y-123711816D01*
X97440217Y-123429488D01*
X97398787Y-123149870D01*
X97303603Y-122883708D01*
X97236671Y-122758486D01*
X97207750Y-122750000D01*
X105561928Y-122750000D01*
X105561928Y-124250000D01*
X105574188Y-124374482D01*
X105610498Y-124494180D01*
X105669463Y-124604494D01*
X105748815Y-124701185D01*
X105845506Y-124780537D01*
X105955820Y-124839502D01*
X106075518Y-124875812D01*
X106200000Y-124888072D01*
X107800000Y-124888072D01*
X107924482Y-124875812D01*
X108044180Y-124839502D01*
X108154494Y-124780537D01*
X108251185Y-124701185D01*
X108330537Y-124604494D01*
X108389502Y-124494180D01*
X108407023Y-124436419D01*
X108585241Y-124614637D01*
X108820273Y-124771680D01*
X109081426Y-124879853D01*
X109358665Y-124935000D01*
X109641335Y-124935000D01*
X109918574Y-124879853D01*
X110179727Y-124771680D01*
X110414759Y-124614637D01*
X110500000Y-124529396D01*
X110585241Y-124614637D01*
X110820273Y-124771680D01*
X111081426Y-124879853D01*
X111358665Y-124935000D01*
X111641335Y-124935000D01*
X111918574Y-124879853D01*
X112179727Y-124771680D01*
X112414759Y-124614637D01*
X112536694Y-124492702D01*
X113186903Y-124492702D01*
X113258486Y-124736671D01*
X113513996Y-124857571D01*
X113788184Y-124926300D01*
X114070512Y-124940217D01*
X114350130Y-124898787D01*
X114616292Y-124803603D01*
X114741514Y-124736671D01*
X114746890Y-124718347D01*
X115757952Y-124718347D01*
X117070000Y-126030395D01*
X118382048Y-124718347D01*
X120617952Y-124718347D01*
X121930000Y-126030395D01*
X123242048Y-124718347D01*
X123086038Y-124402786D01*
X122711255Y-124211980D01*
X122306449Y-124097956D01*
X121887176Y-124065098D01*
X121469549Y-124114666D01*
X121069617Y-124244757D01*
X120773962Y-124402786D01*
X120617952Y-124718347D01*
X118382048Y-124718347D01*
X118226038Y-124402786D01*
X117851255Y-124211980D01*
X117446449Y-124097956D01*
X117027176Y-124065098D01*
X116609549Y-124114666D01*
X116209617Y-124244757D01*
X115913962Y-124402786D01*
X115757952Y-124718347D01*
X114746890Y-124718347D01*
X114813097Y-124492702D01*
X114000000Y-123679605D01*
X113186903Y-124492702D01*
X112536694Y-124492702D01*
X112614637Y-124414759D01*
X112748692Y-124214131D01*
X112763329Y-124241514D01*
X113007298Y-124313097D01*
X113820395Y-123500000D01*
X114179605Y-123500000D01*
X114992702Y-124313097D01*
X115236671Y-124241514D01*
X115357571Y-123986004D01*
X115426300Y-123711816D01*
X115440217Y-123429488D01*
X115398787Y-123149870D01*
X115303603Y-122883708D01*
X115236671Y-122758486D01*
X115207750Y-122750000D01*
X123561928Y-122750000D01*
X123561928Y-124250000D01*
X123574188Y-124374482D01*
X123610498Y-124494180D01*
X123669463Y-124604494D01*
X123748815Y-124701185D01*
X123845506Y-124780537D01*
X123955820Y-124839502D01*
X124075518Y-124875812D01*
X124200000Y-124888072D01*
X125800000Y-124888072D01*
X125924482Y-124875812D01*
X126044180Y-124839502D01*
X126154494Y-124780537D01*
X126251185Y-124701185D01*
X126330537Y-124604494D01*
X126389502Y-124494180D01*
X126407023Y-124436419D01*
X126585241Y-124614637D01*
X126820273Y-124771680D01*
X127081426Y-124879853D01*
X127358665Y-124935000D01*
X127641335Y-124935000D01*
X127918574Y-124879853D01*
X128179727Y-124771680D01*
X128414759Y-124614637D01*
X128500000Y-124529396D01*
X128585241Y-124614637D01*
X128820273Y-124771680D01*
X129081426Y-124879853D01*
X129358665Y-124935000D01*
X129641335Y-124935000D01*
X129918574Y-124879853D01*
X130179727Y-124771680D01*
X130414759Y-124614637D01*
X130536694Y-124492702D01*
X131186903Y-124492702D01*
X131258486Y-124736671D01*
X131513996Y-124857571D01*
X131788184Y-124926300D01*
X132070512Y-124940217D01*
X132350130Y-124898787D01*
X132616292Y-124803603D01*
X132741514Y-124736671D01*
X132746890Y-124718347D01*
X133757952Y-124718347D01*
X135070000Y-126030395D01*
X136382048Y-124718347D01*
X138617952Y-124718347D01*
X139930000Y-126030395D01*
X141242048Y-124718347D01*
X141086038Y-124402786D01*
X140711255Y-124211980D01*
X140306449Y-124097956D01*
X139887176Y-124065098D01*
X139469549Y-124114666D01*
X139069617Y-124244757D01*
X138773962Y-124402786D01*
X138617952Y-124718347D01*
X136382048Y-124718347D01*
X136226038Y-124402786D01*
X135851255Y-124211980D01*
X135446449Y-124097956D01*
X135027176Y-124065098D01*
X134609549Y-124114666D01*
X134209617Y-124244757D01*
X133913962Y-124402786D01*
X133757952Y-124718347D01*
X132746890Y-124718347D01*
X132813097Y-124492702D01*
X132000000Y-123679605D01*
X131186903Y-124492702D01*
X130536694Y-124492702D01*
X130614637Y-124414759D01*
X130748692Y-124214131D01*
X130763329Y-124241514D01*
X131007298Y-124313097D01*
X131820395Y-123500000D01*
X132179605Y-123500000D01*
X132992702Y-124313097D01*
X133236671Y-124241514D01*
X133357571Y-123986004D01*
X133426300Y-123711816D01*
X133440217Y-123429488D01*
X133398787Y-123149870D01*
X133303603Y-122883708D01*
X133236671Y-122758486D01*
X133207750Y-122750000D01*
X141561928Y-122750000D01*
X141561928Y-124250000D01*
X141574188Y-124374482D01*
X141610498Y-124494180D01*
X141669463Y-124604494D01*
X141748815Y-124701185D01*
X141845506Y-124780537D01*
X141955820Y-124839502D01*
X142075518Y-124875812D01*
X142200000Y-124888072D01*
X143800000Y-124888072D01*
X143924482Y-124875812D01*
X144044180Y-124839502D01*
X144154494Y-124780537D01*
X144251185Y-124701185D01*
X144330537Y-124604494D01*
X144389502Y-124494180D01*
X144407023Y-124436419D01*
X144585241Y-124614637D01*
X144820273Y-124771680D01*
X145081426Y-124879853D01*
X145358665Y-124935000D01*
X145641335Y-124935000D01*
X145918574Y-124879853D01*
X146179727Y-124771680D01*
X146414759Y-124614637D01*
X146500000Y-124529396D01*
X146585241Y-124614637D01*
X146820273Y-124771680D01*
X147081426Y-124879853D01*
X147358665Y-124935000D01*
X147641335Y-124935000D01*
X147918574Y-124879853D01*
X148179727Y-124771680D01*
X148414759Y-124614637D01*
X148536694Y-124492702D01*
X149186903Y-124492702D01*
X149258486Y-124736671D01*
X149513996Y-124857571D01*
X149788184Y-124926300D01*
X150070512Y-124940217D01*
X150350130Y-124898787D01*
X150616292Y-124803603D01*
X150741514Y-124736671D01*
X150746890Y-124718347D01*
X151757952Y-124718347D01*
X153070000Y-126030395D01*
X154382048Y-124718347D01*
X163617952Y-124718347D01*
X164930000Y-126030395D01*
X166242048Y-124718347D01*
X166086038Y-124402786D01*
X165711255Y-124211980D01*
X165306449Y-124097956D01*
X164887176Y-124065098D01*
X164469549Y-124114666D01*
X164069617Y-124244757D01*
X163773962Y-124402786D01*
X163617952Y-124718347D01*
X154382048Y-124718347D01*
X154226038Y-124402786D01*
X153851255Y-124211980D01*
X153446449Y-124097956D01*
X153027176Y-124065098D01*
X152609549Y-124114666D01*
X152209617Y-124244757D01*
X151913962Y-124402786D01*
X151757952Y-124718347D01*
X150746890Y-124718347D01*
X150813097Y-124492702D01*
X150000000Y-123679605D01*
X149186903Y-124492702D01*
X148536694Y-124492702D01*
X148614637Y-124414759D01*
X148748692Y-124214131D01*
X148763329Y-124241514D01*
X149007298Y-124313097D01*
X149820395Y-123500000D01*
X150179605Y-123500000D01*
X150992702Y-124313097D01*
X151236671Y-124241514D01*
X151357571Y-123986004D01*
X151426300Y-123711816D01*
X151440217Y-123429488D01*
X151398787Y-123149870D01*
X151303603Y-122883708D01*
X151236671Y-122758486D01*
X151207750Y-122750000D01*
X166561928Y-122750000D01*
X166561928Y-124250000D01*
X166574188Y-124374482D01*
X166610498Y-124494180D01*
X166669463Y-124604494D01*
X166748815Y-124701185D01*
X166845506Y-124780537D01*
X166955820Y-124839502D01*
X167075518Y-124875812D01*
X167200000Y-124888072D01*
X168800000Y-124888072D01*
X168924482Y-124875812D01*
X169044180Y-124839502D01*
X169154494Y-124780537D01*
X169251185Y-124701185D01*
X169330537Y-124604494D01*
X169389502Y-124494180D01*
X169407023Y-124436419D01*
X169585241Y-124614637D01*
X169820273Y-124771680D01*
X170081426Y-124879853D01*
X170358665Y-124935000D01*
X170641335Y-124935000D01*
X170918574Y-124879853D01*
X171179727Y-124771680D01*
X171414759Y-124614637D01*
X171500000Y-124529396D01*
X171585241Y-124614637D01*
X171820273Y-124771680D01*
X172081426Y-124879853D01*
X172358665Y-124935000D01*
X172641335Y-124935000D01*
X172918574Y-124879853D01*
X173179727Y-124771680D01*
X173414759Y-124614637D01*
X173536694Y-124492702D01*
X174186903Y-124492702D01*
X174258486Y-124736671D01*
X174513996Y-124857571D01*
X174788184Y-124926300D01*
X175070512Y-124940217D01*
X175350130Y-124898787D01*
X175616292Y-124803603D01*
X175741514Y-124736671D01*
X175746890Y-124718347D01*
X176757952Y-124718347D01*
X178070000Y-126030395D01*
X179382048Y-124718347D01*
X179226038Y-124402786D01*
X178851255Y-124211980D01*
X178446449Y-124097956D01*
X178027176Y-124065098D01*
X177609549Y-124114666D01*
X177209617Y-124244757D01*
X176913962Y-124402786D01*
X176757952Y-124718347D01*
X175746890Y-124718347D01*
X175813097Y-124492702D01*
X175000000Y-123679605D01*
X174186903Y-124492702D01*
X173536694Y-124492702D01*
X173614637Y-124414759D01*
X173748692Y-124214131D01*
X173763329Y-124241514D01*
X174007298Y-124313097D01*
X174820395Y-123500000D01*
X175179605Y-123500000D01*
X175992702Y-124313097D01*
X176236671Y-124241514D01*
X176357571Y-123986004D01*
X176426300Y-123711816D01*
X176440217Y-123429488D01*
X176398787Y-123149870D01*
X176303603Y-122883708D01*
X176236671Y-122758486D01*
X175992702Y-122686903D01*
X175179605Y-123500000D01*
X174820395Y-123500000D01*
X174007298Y-122686903D01*
X173763329Y-122758486D01*
X173749676Y-122787341D01*
X173614637Y-122585241D01*
X173536694Y-122507298D01*
X174186903Y-122507298D01*
X175000000Y-123320395D01*
X175813097Y-122507298D01*
X175741514Y-122263329D01*
X175486004Y-122142429D01*
X175211816Y-122073700D01*
X174929488Y-122059783D01*
X174649870Y-122101213D01*
X174383708Y-122196397D01*
X174258486Y-122263329D01*
X174186903Y-122507298D01*
X173536694Y-122507298D01*
X173414759Y-122385363D01*
X173179727Y-122228320D01*
X172918574Y-122120147D01*
X172641335Y-122065000D01*
X172358665Y-122065000D01*
X172081426Y-122120147D01*
X171820273Y-122228320D01*
X171585241Y-122385363D01*
X171500000Y-122470604D01*
X171414759Y-122385363D01*
X171179727Y-122228320D01*
X170918574Y-122120147D01*
X170641335Y-122065000D01*
X170358665Y-122065000D01*
X170081426Y-122120147D01*
X169820273Y-122228320D01*
X169585241Y-122385363D01*
X169407023Y-122563581D01*
X169389502Y-122505820D01*
X169330537Y-122395506D01*
X169251185Y-122298815D01*
X169154494Y-122219463D01*
X169044180Y-122160498D01*
X168924482Y-122124188D01*
X168800000Y-122111928D01*
X167200000Y-122111928D01*
X167075518Y-122124188D01*
X166955820Y-122160498D01*
X166845506Y-122219463D01*
X166748815Y-122298815D01*
X166669463Y-122395506D01*
X166610498Y-122505820D01*
X166574188Y-122625518D01*
X166561928Y-122750000D01*
X151207750Y-122750000D01*
X150992702Y-122686903D01*
X150179605Y-123500000D01*
X149820395Y-123500000D01*
X149007298Y-122686903D01*
X148763329Y-122758486D01*
X148749676Y-122787341D01*
X148614637Y-122585241D01*
X148536694Y-122507298D01*
X149186903Y-122507298D01*
X150000000Y-123320395D01*
X150813097Y-122507298D01*
X150741514Y-122263329D01*
X150486004Y-122142429D01*
X150211816Y-122073700D01*
X149929488Y-122059783D01*
X149649870Y-122101213D01*
X149383708Y-122196397D01*
X149258486Y-122263329D01*
X149186903Y-122507298D01*
X148536694Y-122507298D01*
X148414759Y-122385363D01*
X148179727Y-122228320D01*
X147918574Y-122120147D01*
X147641335Y-122065000D01*
X147358665Y-122065000D01*
X147081426Y-122120147D01*
X146820273Y-122228320D01*
X146585241Y-122385363D01*
X146500000Y-122470604D01*
X146414759Y-122385363D01*
X146179727Y-122228320D01*
X145918574Y-122120147D01*
X145641335Y-122065000D01*
X145358665Y-122065000D01*
X145081426Y-122120147D01*
X144820273Y-122228320D01*
X144585241Y-122385363D01*
X144407023Y-122563581D01*
X144389502Y-122505820D01*
X144330537Y-122395506D01*
X144251185Y-122298815D01*
X144154494Y-122219463D01*
X144044180Y-122160498D01*
X143924482Y-122124188D01*
X143800000Y-122111928D01*
X142200000Y-122111928D01*
X142075518Y-122124188D01*
X141955820Y-122160498D01*
X141845506Y-122219463D01*
X141748815Y-122298815D01*
X141669463Y-122395506D01*
X141610498Y-122505820D01*
X141574188Y-122625518D01*
X141561928Y-122750000D01*
X133207750Y-122750000D01*
X132992702Y-122686903D01*
X132179605Y-123500000D01*
X131820395Y-123500000D01*
X131007298Y-122686903D01*
X130763329Y-122758486D01*
X130749676Y-122787341D01*
X130614637Y-122585241D01*
X130536694Y-122507298D01*
X131186903Y-122507298D01*
X132000000Y-123320395D01*
X132813097Y-122507298D01*
X132741514Y-122263329D01*
X132486004Y-122142429D01*
X132211816Y-122073700D01*
X131929488Y-122059783D01*
X131649870Y-122101213D01*
X131383708Y-122196397D01*
X131258486Y-122263329D01*
X131186903Y-122507298D01*
X130536694Y-122507298D01*
X130414759Y-122385363D01*
X130179727Y-122228320D01*
X129918574Y-122120147D01*
X129641335Y-122065000D01*
X129358665Y-122065000D01*
X129081426Y-122120147D01*
X128820273Y-122228320D01*
X128585241Y-122385363D01*
X128500000Y-122470604D01*
X128414759Y-122385363D01*
X128179727Y-122228320D01*
X127918574Y-122120147D01*
X127641335Y-122065000D01*
X127358665Y-122065000D01*
X127081426Y-122120147D01*
X126820273Y-122228320D01*
X126585241Y-122385363D01*
X126407023Y-122563581D01*
X126389502Y-122505820D01*
X126330537Y-122395506D01*
X126251185Y-122298815D01*
X126154494Y-122219463D01*
X126044180Y-122160498D01*
X125924482Y-122124188D01*
X125800000Y-122111928D01*
X124200000Y-122111928D01*
X124075518Y-122124188D01*
X123955820Y-122160498D01*
X123845506Y-122219463D01*
X123748815Y-122298815D01*
X123669463Y-122395506D01*
X123610498Y-122505820D01*
X123574188Y-122625518D01*
X123561928Y-122750000D01*
X115207750Y-122750000D01*
X114992702Y-122686903D01*
X114179605Y-123500000D01*
X113820395Y-123500000D01*
X113007298Y-122686903D01*
X112763329Y-122758486D01*
X112749676Y-122787341D01*
X112614637Y-122585241D01*
X112536694Y-122507298D01*
X113186903Y-122507298D01*
X114000000Y-123320395D01*
X114813097Y-122507298D01*
X114741514Y-122263329D01*
X114486004Y-122142429D01*
X114211816Y-122073700D01*
X113929488Y-122059783D01*
X113649870Y-122101213D01*
X113383708Y-122196397D01*
X113258486Y-122263329D01*
X113186903Y-122507298D01*
X112536694Y-122507298D01*
X112414759Y-122385363D01*
X112179727Y-122228320D01*
X111918574Y-122120147D01*
X111641335Y-122065000D01*
X111358665Y-122065000D01*
X111081426Y-122120147D01*
X110820273Y-122228320D01*
X110585241Y-122385363D01*
X110500000Y-122470604D01*
X110414759Y-122385363D01*
X110179727Y-122228320D01*
X109918574Y-122120147D01*
X109641335Y-122065000D01*
X109358665Y-122065000D01*
X109081426Y-122120147D01*
X108820273Y-122228320D01*
X108585241Y-122385363D01*
X108407023Y-122563581D01*
X108389502Y-122505820D01*
X108330537Y-122395506D01*
X108251185Y-122298815D01*
X108154494Y-122219463D01*
X108044180Y-122160498D01*
X107924482Y-122124188D01*
X107800000Y-122111928D01*
X106200000Y-122111928D01*
X106075518Y-122124188D01*
X105955820Y-122160498D01*
X105845506Y-122219463D01*
X105748815Y-122298815D01*
X105669463Y-122395506D01*
X105610498Y-122505820D01*
X105574188Y-122625518D01*
X105561928Y-122750000D01*
X97207750Y-122750000D01*
X96992702Y-122686903D01*
X96179605Y-123500000D01*
X95820395Y-123500000D01*
X95007298Y-122686903D01*
X94763329Y-122758486D01*
X94749676Y-122787341D01*
X94614637Y-122585241D01*
X94536694Y-122507298D01*
X95186903Y-122507298D01*
X96000000Y-123320395D01*
X96813097Y-122507298D01*
X96741514Y-122263329D01*
X96486004Y-122142429D01*
X96211816Y-122073700D01*
X95929488Y-122059783D01*
X95649870Y-122101213D01*
X95383708Y-122196397D01*
X95258486Y-122263329D01*
X95186903Y-122507298D01*
X94536694Y-122507298D01*
X94414759Y-122385363D01*
X94179727Y-122228320D01*
X93918574Y-122120147D01*
X93641335Y-122065000D01*
X93358665Y-122065000D01*
X93081426Y-122120147D01*
X92820273Y-122228320D01*
X92585241Y-122385363D01*
X92500000Y-122470604D01*
X92414759Y-122385363D01*
X92179727Y-122228320D01*
X91918574Y-122120147D01*
X91641335Y-122065000D01*
X91358665Y-122065000D01*
X91081426Y-122120147D01*
X90820273Y-122228320D01*
X90585241Y-122385363D01*
X90407023Y-122563581D01*
X90389502Y-122505820D01*
X90330537Y-122395506D01*
X90251185Y-122298815D01*
X90154494Y-122219463D01*
X90044180Y-122160498D01*
X89924482Y-122124188D01*
X89800000Y-122111928D01*
X88200000Y-122111928D01*
X88075518Y-122124188D01*
X87955820Y-122160498D01*
X87845506Y-122219463D01*
X87748815Y-122298815D01*
X87669463Y-122395506D01*
X87610498Y-122505820D01*
X87574188Y-122625518D01*
X87561928Y-122750000D01*
X72207750Y-122750000D01*
X71992702Y-122686903D01*
X71179605Y-123500000D01*
X70820395Y-123500000D01*
X70007298Y-122686903D01*
X69763329Y-122758486D01*
X69749676Y-122787341D01*
X69614637Y-122585241D01*
X69536694Y-122507298D01*
X70186903Y-122507298D01*
X71000000Y-123320395D01*
X71813097Y-122507298D01*
X71741514Y-122263329D01*
X71486004Y-122142429D01*
X71211816Y-122073700D01*
X70929488Y-122059783D01*
X70649870Y-122101213D01*
X70383708Y-122196397D01*
X70258486Y-122263329D01*
X70186903Y-122507298D01*
X69536694Y-122507298D01*
X69414759Y-122385363D01*
X69179727Y-122228320D01*
X68918574Y-122120147D01*
X68641335Y-122065000D01*
X68358665Y-122065000D01*
X68081426Y-122120147D01*
X67820273Y-122228320D01*
X67585241Y-122385363D01*
X67500000Y-122470604D01*
X67414759Y-122385363D01*
X67179727Y-122228320D01*
X66918574Y-122120147D01*
X66641335Y-122065000D01*
X66358665Y-122065000D01*
X66081426Y-122120147D01*
X65820273Y-122228320D01*
X65585241Y-122385363D01*
X65407023Y-122563581D01*
X65389502Y-122505820D01*
X65330537Y-122395506D01*
X65251185Y-122298815D01*
X65154494Y-122219463D01*
X65044180Y-122160498D01*
X64924482Y-122124188D01*
X64800000Y-122111928D01*
X63200000Y-122111928D01*
X63075518Y-122124188D01*
X62955820Y-122160498D01*
X62845506Y-122219463D01*
X62748815Y-122298815D01*
X62669463Y-122395506D01*
X62610498Y-122505820D01*
X62574188Y-122625518D01*
X62561928Y-122750000D01*
X53160000Y-122750000D01*
X53160000Y-120000000D01*
X181361928Y-120000000D01*
X181361928Y-123000000D01*
X181374188Y-123124482D01*
X181410498Y-123244180D01*
X181469463Y-123354494D01*
X181548815Y-123451185D01*
X181645506Y-123530537D01*
X181755820Y-123589502D01*
X181875518Y-123625812D01*
X182000000Y-123638072D01*
X185000000Y-123638072D01*
X185124482Y-123625812D01*
X185244180Y-123589502D01*
X185354494Y-123530537D01*
X185451185Y-123451185D01*
X185530537Y-123354494D01*
X185589502Y-123244180D01*
X185625812Y-123124482D01*
X185638072Y-123000000D01*
X185638072Y-120000000D01*
X185625812Y-119875518D01*
X185589502Y-119755820D01*
X185530537Y-119645506D01*
X185451185Y-119548815D01*
X185354494Y-119469463D01*
X185244180Y-119410498D01*
X185124482Y-119374188D01*
X185000000Y-119361928D01*
X182000000Y-119361928D01*
X181875518Y-119374188D01*
X181755820Y-119410498D01*
X181645506Y-119469463D01*
X181548815Y-119548815D01*
X181469463Y-119645506D01*
X181410498Y-119755820D01*
X181374188Y-119875518D01*
X181361928Y-120000000D01*
X53160000Y-120000000D01*
X53160000Y-117911653D01*
X182187952Y-117911653D01*
X182343962Y-118227214D01*
X182718745Y-118418020D01*
X183123551Y-118532044D01*
X183542824Y-118564902D01*
X183960451Y-118515334D01*
X184360383Y-118385243D01*
X184656038Y-118227214D01*
X184812048Y-117911653D01*
X183500000Y-116599605D01*
X182187952Y-117911653D01*
X53160000Y-117911653D01*
X53160000Y-115991653D01*
X55187952Y-115991653D01*
X55343962Y-116307214D01*
X55718745Y-116498020D01*
X56123551Y-116612044D01*
X56542824Y-116644902D01*
X56960451Y-116595334D01*
X57360383Y-116465243D01*
X57364908Y-116462824D01*
X181355098Y-116462824D01*
X181404666Y-116880451D01*
X181534757Y-117280383D01*
X181692786Y-117576038D01*
X182008347Y-117732048D01*
X183320395Y-116420000D01*
X183679605Y-116420000D01*
X184991653Y-117732048D01*
X185307214Y-117576038D01*
X185498020Y-117201255D01*
X185612044Y-116796449D01*
X185644902Y-116377176D01*
X185595334Y-115959549D01*
X185465243Y-115559617D01*
X185307214Y-115263962D01*
X184991653Y-115107952D01*
X183679605Y-116420000D01*
X183320395Y-116420000D01*
X182008347Y-115107952D01*
X181692786Y-115263962D01*
X181501980Y-115638745D01*
X181387956Y-116043551D01*
X181355098Y-116462824D01*
X57364908Y-116462824D01*
X57656038Y-116307214D01*
X57812048Y-115991653D01*
X56500000Y-114679605D01*
X55187952Y-115991653D01*
X53160000Y-115991653D01*
X53160000Y-114542824D01*
X54355098Y-114542824D01*
X54404666Y-114960451D01*
X54534757Y-115360383D01*
X54692786Y-115656038D01*
X55008347Y-115812048D01*
X56320395Y-114500000D01*
X56679605Y-114500000D01*
X57991653Y-115812048D01*
X58307214Y-115656038D01*
X58498020Y-115281255D01*
X58597425Y-114928347D01*
X182187952Y-114928347D01*
X183500000Y-116240395D01*
X184812048Y-114928347D01*
X184656038Y-114612786D01*
X184281255Y-114421980D01*
X183876449Y-114307956D01*
X183457176Y-114275098D01*
X183039549Y-114324666D01*
X182639617Y-114454757D01*
X182343962Y-114612786D01*
X182187952Y-114928347D01*
X58597425Y-114928347D01*
X58612044Y-114876449D01*
X58644902Y-114457176D01*
X58595334Y-114039549D01*
X58465243Y-113639617D01*
X58307214Y-113343962D01*
X57991653Y-113187952D01*
X56679605Y-114500000D01*
X56320395Y-114500000D01*
X55008347Y-113187952D01*
X54692786Y-113343962D01*
X54501980Y-113718745D01*
X54387956Y-114123551D01*
X54355098Y-114542824D01*
X53160000Y-114542824D01*
X53160000Y-113008347D01*
X55187952Y-113008347D01*
X56500000Y-114320395D01*
X57812048Y-113008347D01*
X57656038Y-112692786D01*
X57281255Y-112501980D01*
X56876449Y-112387956D01*
X56457176Y-112355098D01*
X56039549Y-112404666D01*
X55639617Y-112534757D01*
X55343962Y-112692786D01*
X55187952Y-113008347D01*
X53160000Y-113008347D01*
X53160000Y-107920000D01*
X54361928Y-107920000D01*
X54361928Y-110920000D01*
X54374188Y-111044482D01*
X54410498Y-111164180D01*
X54469463Y-111274494D01*
X54548815Y-111371185D01*
X54645506Y-111450537D01*
X54755820Y-111509502D01*
X54875518Y-111545812D01*
X55000000Y-111558072D01*
X58000000Y-111558072D01*
X58124482Y-111545812D01*
X58244180Y-111509502D01*
X58354494Y-111450537D01*
X58451185Y-111371185D01*
X58530537Y-111274494D01*
X58589502Y-111164180D01*
X58625812Y-111044482D01*
X58638072Y-110920000D01*
X58638072Y-107920000D01*
X58625812Y-107795518D01*
X58589502Y-107675820D01*
X58530537Y-107565506D01*
X58451185Y-107468815D01*
X58354494Y-107389463D01*
X58244180Y-107330498D01*
X58124482Y-107294188D01*
X58000000Y-107281928D01*
X55000000Y-107281928D01*
X54875518Y-107294188D01*
X54755820Y-107330498D01*
X54645506Y-107389463D01*
X54548815Y-107468815D01*
X54469463Y-107565506D01*
X54410498Y-107675820D01*
X54374188Y-107795518D01*
X54361928Y-107920000D01*
X53160000Y-107920000D01*
X53160000Y-103750000D01*
X114123000Y-103750000D01*
X114123000Y-112837213D01*
X114125440Y-112861989D01*
X114132667Y-112885814D01*
X114144403Y-112907770D01*
X114160197Y-112927016D01*
X114179443Y-112942810D01*
X114201399Y-112954546D01*
X114225224Y-112961773D01*
X114250000Y-112964213D01*
X122750000Y-112964213D01*
X122774776Y-112961773D01*
X122798601Y-112954546D01*
X122820557Y-112942810D01*
X122839803Y-112927016D01*
X122855597Y-112907770D01*
X122867333Y-112885814D01*
X122874560Y-112861989D01*
X122877000Y-112837213D01*
X122877000Y-111129721D01*
X181365000Y-111129721D01*
X181365000Y-111550279D01*
X181447047Y-111962756D01*
X181607988Y-112351302D01*
X181841637Y-112700983D01*
X182139017Y-112998363D01*
X182488698Y-113232012D01*
X182877244Y-113392953D01*
X183289721Y-113475000D01*
X183710279Y-113475000D01*
X184122756Y-113392953D01*
X184511302Y-113232012D01*
X184860983Y-112998363D01*
X185158363Y-112700983D01*
X185392012Y-112351302D01*
X185552953Y-111962756D01*
X185635000Y-111550279D01*
X185635000Y-111129721D01*
X185552953Y-110717244D01*
X185392012Y-110328698D01*
X185158363Y-109979017D01*
X184860983Y-109681637D01*
X184511302Y-109447988D01*
X184122756Y-109287047D01*
X183710279Y-109205000D01*
X183289721Y-109205000D01*
X182877244Y-109287047D01*
X182488698Y-109447988D01*
X182139017Y-109681637D01*
X181841637Y-109979017D01*
X181607988Y-110328698D01*
X181447047Y-110717244D01*
X181365000Y-111129721D01*
X122877000Y-111129721D01*
X122877000Y-107751653D01*
X182187952Y-107751653D01*
X182343962Y-108067214D01*
X182718745Y-108258020D01*
X183123551Y-108372044D01*
X183542824Y-108404902D01*
X183960451Y-108355334D01*
X184360383Y-108225243D01*
X184656038Y-108067214D01*
X184812048Y-107751653D01*
X183500000Y-106439605D01*
X182187952Y-107751653D01*
X122877000Y-107751653D01*
X122877000Y-106302824D01*
X181355098Y-106302824D01*
X181404666Y-106720451D01*
X181534757Y-107120383D01*
X181692786Y-107416038D01*
X182008347Y-107572048D01*
X183320395Y-106260000D01*
X183679605Y-106260000D01*
X184991653Y-107572048D01*
X185307214Y-107416038D01*
X185498020Y-107041255D01*
X185612044Y-106636449D01*
X185644902Y-106217176D01*
X185595334Y-105799549D01*
X185465243Y-105399617D01*
X185307214Y-105103962D01*
X184991653Y-104947952D01*
X183679605Y-106260000D01*
X183320395Y-106260000D01*
X182008347Y-104947952D01*
X181692786Y-105103962D01*
X181501980Y-105478745D01*
X181387956Y-105883551D01*
X181355098Y-106302824D01*
X122877000Y-106302824D01*
X122877000Y-104768347D01*
X182187952Y-104768347D01*
X183500000Y-106080395D01*
X184812048Y-104768347D01*
X184656038Y-104452786D01*
X184281255Y-104261980D01*
X183876449Y-104147956D01*
X183457176Y-104115098D01*
X183039549Y-104164666D01*
X182639617Y-104294757D01*
X182343962Y-104452786D01*
X182187952Y-104768347D01*
X122877000Y-104768347D01*
X122877000Y-103750000D01*
X122874560Y-103725224D01*
X122867333Y-103701399D01*
X122855597Y-103679443D01*
X122839803Y-103660197D01*
X122820557Y-103644403D01*
X122798601Y-103632667D01*
X122774776Y-103625440D01*
X122750000Y-103623000D01*
X114250000Y-103623000D01*
X114225224Y-103625440D01*
X114201399Y-103632667D01*
X114179443Y-103644403D01*
X114160197Y-103660197D01*
X114144403Y-103679443D01*
X114132667Y-103701399D01*
X114125440Y-103725224D01*
X114123000Y-103750000D01*
X53160000Y-103750000D01*
X53160000Y-100969721D01*
X181365000Y-100969721D01*
X181365000Y-101390279D01*
X181447047Y-101802756D01*
X181607988Y-102191302D01*
X181841637Y-102540983D01*
X182139017Y-102838363D01*
X182488698Y-103072012D01*
X182877244Y-103232953D01*
X183289721Y-103315000D01*
X183710279Y-103315000D01*
X184122756Y-103232953D01*
X184511302Y-103072012D01*
X184860983Y-102838363D01*
X185158363Y-102540983D01*
X185392012Y-102191302D01*
X185552953Y-101802756D01*
X185635000Y-101390279D01*
X185635000Y-100969721D01*
X185552953Y-100557244D01*
X185392012Y-100168698D01*
X185158363Y-99819017D01*
X184860983Y-99521637D01*
X184511302Y-99287988D01*
X184122756Y-99127047D01*
X183710279Y-99045000D01*
X183289721Y-99045000D01*
X182877244Y-99127047D01*
X182488698Y-99287988D01*
X182139017Y-99521637D01*
X181841637Y-99819017D01*
X181607988Y-100168698D01*
X181447047Y-100557244D01*
X181365000Y-100969721D01*
X53160000Y-100969721D01*
X53160000Y-97398061D01*
X60215000Y-97398061D01*
X60215000Y-97601939D01*
X60254774Y-97801898D01*
X60332795Y-97990256D01*
X60446063Y-98159774D01*
X60590226Y-98303937D01*
X60759744Y-98417205D01*
X60948102Y-98495226D01*
X61148061Y-98535000D01*
X61210199Y-98535000D01*
X62186200Y-99511002D01*
X62209999Y-99540001D01*
X62325724Y-99634974D01*
X62457753Y-99705546D01*
X62601014Y-99749003D01*
X62712667Y-99760000D01*
X62712676Y-99760000D01*
X62749999Y-99763676D01*
X62787322Y-99760000D01*
X66185198Y-99760000D01*
X66785548Y-100360351D01*
X66809342Y-100389344D01*
X66838335Y-100413138D01*
X66838339Y-100413142D01*
X66909028Y-100471154D01*
X66925067Y-100484317D01*
X67057096Y-100554889D01*
X67200357Y-100598346D01*
X67312010Y-100609343D01*
X67312019Y-100609343D01*
X67349342Y-100613019D01*
X67386665Y-100609343D01*
X67388142Y-100609343D01*
X67432079Y-100653280D01*
X67601597Y-100766548D01*
X67789955Y-100844569D01*
X67989914Y-100884343D01*
X68193792Y-100884343D01*
X68393751Y-100844569D01*
X68582109Y-100766548D01*
X68751627Y-100653280D01*
X68895790Y-100509117D01*
X69009058Y-100339599D01*
X69087079Y-100151241D01*
X69126853Y-99951282D01*
X69126853Y-99747404D01*
X69087079Y-99547445D01*
X69009058Y-99359087D01*
X68895790Y-99189569D01*
X68751627Y-99045406D01*
X68582109Y-98932138D01*
X68393751Y-98854117D01*
X68193792Y-98814343D01*
X67989914Y-98814343D01*
X67789955Y-98854117D01*
X67601597Y-98932138D01*
X67544854Y-98970052D01*
X67063803Y-98489002D01*
X67040001Y-98459999D01*
X66924276Y-98365026D01*
X66792247Y-98294454D01*
X66648986Y-98250997D01*
X66537333Y-98240000D01*
X66537322Y-98240000D01*
X66500000Y-98236324D01*
X66462678Y-98240000D01*
X63064802Y-98240000D01*
X62285000Y-97460199D01*
X62285000Y-97398061D01*
X62245226Y-97198102D01*
X62167205Y-97009744D01*
X62053937Y-96840226D01*
X61909774Y-96696063D01*
X61740256Y-96582795D01*
X61551898Y-96504774D01*
X61351939Y-96465000D01*
X61148061Y-96465000D01*
X60948102Y-96504774D01*
X60759744Y-96582795D01*
X60590226Y-96696063D01*
X60446063Y-96840226D01*
X60332795Y-97009744D01*
X60254774Y-97198102D01*
X60215000Y-97398061D01*
X53160000Y-97398061D01*
X53160000Y-94510378D01*
X53225869Y-94841523D01*
X53443346Y-95366560D01*
X53759074Y-95839080D01*
X54160920Y-96240926D01*
X54633440Y-96556654D01*
X55158477Y-96774131D01*
X55715852Y-96885000D01*
X56284148Y-96885000D01*
X56841523Y-96774131D01*
X57366560Y-96556654D01*
X57839080Y-96240926D01*
X58240926Y-95839080D01*
X58556654Y-95366560D01*
X58774131Y-94841523D01*
X58871901Y-94350000D01*
X109811928Y-94350000D01*
X109815000Y-94964250D01*
X109973750Y-95123000D01*
X110281658Y-95123000D01*
X110280141Y-95193807D01*
X110277784Y-95196164D01*
X110278937Y-95250000D01*
X110277784Y-95303836D01*
X110280141Y-95306193D01*
X110281658Y-95377000D01*
X109973750Y-95377000D01*
X109815000Y-95535750D01*
X109811928Y-96150000D01*
X109824188Y-96274482D01*
X109860498Y-96394180D01*
X109919463Y-96504494D01*
X109998815Y-96601185D01*
X110095506Y-96680537D01*
X110205820Y-96739502D01*
X110325518Y-96775812D01*
X110450000Y-96788072D01*
X110964250Y-96785000D01*
X111026416Y-96722834D01*
X111118174Y-96684827D01*
X111119351Y-96629899D01*
X111123000Y-96626250D01*
X111123000Y-96320484D01*
X111203836Y-96322216D01*
X111250000Y-96276052D01*
X111296164Y-96322216D01*
X111377000Y-96320484D01*
X111377000Y-96626250D01*
X111380649Y-96629899D01*
X111381826Y-96684827D01*
X111473344Y-96722594D01*
X111535750Y-96785000D01*
X112050000Y-96788072D01*
X112174482Y-96775812D01*
X112294180Y-96739502D01*
X112404494Y-96680537D01*
X112501185Y-96601185D01*
X112580537Y-96504494D01*
X112639502Y-96394180D01*
X112675812Y-96274482D01*
X112688072Y-96150000D01*
X112685000Y-95535750D01*
X112526250Y-95377000D01*
X112218342Y-95377000D01*
X112219859Y-95306193D01*
X112222216Y-95303836D01*
X112221063Y-95250000D01*
X112222216Y-95196164D01*
X112219859Y-95193807D01*
X112218342Y-95123000D01*
X112526250Y-95123000D01*
X112685000Y-94964250D01*
X112688072Y-94350000D01*
X112675812Y-94225518D01*
X112639502Y-94105820D01*
X112580537Y-93995506D01*
X112501185Y-93898815D01*
X112404494Y-93819463D01*
X112294180Y-93760498D01*
X112174482Y-93724188D01*
X112050000Y-93711928D01*
X111535750Y-93715000D01*
X111473584Y-93777166D01*
X111381826Y-93815173D01*
X111380649Y-93870101D01*
X111377000Y-93873750D01*
X111377000Y-94179516D01*
X111296164Y-94177784D01*
X111250000Y-94223948D01*
X111203836Y-94177784D01*
X111123000Y-94179516D01*
X111123000Y-93873750D01*
X111119351Y-93870101D01*
X111118174Y-93815173D01*
X111026656Y-93777406D01*
X110964250Y-93715000D01*
X110450000Y-93711928D01*
X110325518Y-93724188D01*
X110205820Y-93760498D01*
X110095506Y-93819463D01*
X109998815Y-93898815D01*
X109919463Y-93995506D01*
X109860498Y-94105820D01*
X109824188Y-94225518D01*
X109811928Y-94350000D01*
X58871901Y-94350000D01*
X58885000Y-94284148D01*
X58885000Y-93715852D01*
X58774131Y-93158477D01*
X58556654Y-92633440D01*
X58240926Y-92160920D01*
X57839080Y-91759074D01*
X57366560Y-91443346D01*
X56841523Y-91225869D01*
X56510378Y-91160000D01*
X183489622Y-91160000D01*
X183158477Y-91225869D01*
G36*
X111296164Y-95022216D02*
G01*
X111377000Y-95020484D01*
X111377000Y-95123000D01*
X111381658Y-95123000D01*
X111380141Y-95193807D01*
X111377784Y-95196164D01*
X111378937Y-95250000D01*
X111377784Y-95303836D01*
X111380141Y-95306193D01*
X111381658Y-95377000D01*
X111377000Y-95377000D01*
X111377000Y-95479516D01*
X111296164Y-95477784D01*
X111250000Y-95523948D01*
X111203836Y-95477784D01*
X111123000Y-95479516D01*
X111123000Y-95377000D01*
X111118342Y-95377000D01*
X111119859Y-95306193D01*
X111122216Y-95303836D01*
X111121063Y-95250000D01*
X111122216Y-95196164D01*
X111119859Y-95193807D01*
X111118342Y-95123000D01*
X111123000Y-95123000D01*
X111123000Y-95020484D01*
X111203836Y-95022216D01*
X111250000Y-94976052D01*
X111296164Y-95022216D01*
G37*
X111296164Y-95022216D02*
X111377000Y-95020484D01*
X111377000Y-95123000D01*
X111381658Y-95123000D01*
X111380141Y-95193807D01*
X111377784Y-95196164D01*
X111378937Y-95250000D01*
X111377784Y-95303836D01*
X111380141Y-95306193D01*
X111381658Y-95377000D01*
X111377000Y-95377000D01*
X111377000Y-95479516D01*
X111296164Y-95477784D01*
X111250000Y-95523948D01*
X111203836Y-95477784D01*
X111123000Y-95479516D01*
X111123000Y-95377000D01*
X111118342Y-95377000D01*
X111119859Y-95306193D01*
X111122216Y-95303836D01*
X111121063Y-95250000D01*
X111122216Y-95196164D01*
X111119859Y-95193807D01*
X111118342Y-95123000D01*
X111123000Y-95123000D01*
X111123000Y-95020484D01*
X111203836Y-95022216D01*
X111250000Y-94976052D01*
X111296164Y-95022216D01*
%TD*%
M02*
