%TF.GenerationSoftware,KiCad,Pcbnew,5.1.6*%
%TF.CreationDate,2020-06-19T21:58:21+02:00*%
%TF.ProjectId,laptop2usb,6c617074-6f70-4327-9573-622e6b696361,rev?*%
%TF.SameCoordinates,Original*%
%TF.FileFunction,Soldermask,Bot*%
%TF.FilePolarity,Negative*%
%FSLAX46Y46*%
G04 Gerber Fmt 4.6, Leading zero omitted, Abs format (unit mm)*
G04 Created by KiCad (PCBNEW 5.1.6) date 2020-06-19 21:58:21*
%MOMM*%
%LPD*%
G01*
G04 APERTURE LIST*
%ADD10C,3.100000*%
%ADD11R,3.100000X3.100000*%
%ADD12C,1.700000*%
%ADD13R,1.700000X1.600000*%
G04 APERTURE END LIST*
D10*
%TO.C,J8*%
X183500000Y-101180000D03*
X183500000Y-106260000D03*
D11*
X183500000Y-121500000D03*
D10*
X183500000Y-111340000D03*
X183500000Y-116420000D03*
%TD*%
%TO.C,J1*%
X56500000Y-114500000D03*
D11*
X56500000Y-109420000D03*
%TD*%
D12*
%TO.C,J7*%
X175000000Y-123500000D03*
X172500000Y-123500000D03*
X170500000Y-123500000D03*
D13*
X168000000Y-123500000D03*
D10*
X178070000Y-126210000D03*
X164930000Y-126210000D03*
%TD*%
D12*
%TO.C,J6*%
X150000000Y-123500000D03*
X147500000Y-123500000D03*
X145500000Y-123500000D03*
D13*
X143000000Y-123500000D03*
D10*
X153070000Y-126210000D03*
X139930000Y-126210000D03*
%TD*%
D12*
%TO.C,J5*%
X132000000Y-123500000D03*
X129500000Y-123500000D03*
X127500000Y-123500000D03*
D13*
X125000000Y-123500000D03*
D10*
X135070000Y-126210000D03*
X121930000Y-126210000D03*
%TD*%
D12*
%TO.C,J4*%
X114000000Y-123500000D03*
X111500000Y-123500000D03*
X109500000Y-123500000D03*
D13*
X107000000Y-123500000D03*
D10*
X117070000Y-126210000D03*
X103930000Y-126210000D03*
%TD*%
D12*
%TO.C,J3*%
X96000000Y-123500000D03*
X93500000Y-123500000D03*
X91500000Y-123500000D03*
D13*
X89000000Y-123500000D03*
D10*
X99070000Y-126210000D03*
X85930000Y-126210000D03*
%TD*%
D12*
%TO.C,J2*%
X71000000Y-123500000D03*
X68500000Y-123500000D03*
X66500000Y-123500000D03*
D13*
X64000000Y-123500000D03*
D10*
X74070000Y-126210000D03*
X60930000Y-126210000D03*
%TD*%
M02*
