M48
; DRILL file {KiCad 5.1.6} date Fri Jun 19 21:58:17 2020
; FORMAT={-:-/ absolute / inch / decimal}
; #@! TF.CreationDate,2020-06-19T21:58:17+02:00
; #@! TF.GenerationSoftware,Kicad,Pcbnew,5.1.6
; #@! TF.FileFunction,Plated,1,2,PTH
FMAT,2
INCH
T1C0.0079
T2C0.0157
T3C0.0374
T4C0.0598
T5C0.0906
T6C0.1260
%
G90
G05
T1
X4.3583Y-3.7244
X4.3583Y-3.7756
X4.4016Y-3.7244
X4.4016Y-3.7756
T2
X2.4114Y-3.8386
X2.6808Y-3.9311
X4.2618Y-3.8386
X4.2618Y-4.0059
X4.2618Y-4.0748
X4.3504Y-3.8386
X4.3504Y-4.0059
X4.439Y-3.8386
X4.439Y-4.0059
X4.439Y-4.0748
X4.6561Y-3.7299
T3
X4.9213Y-4.8622
X5.0197Y-4.8622
X5.0984Y-4.8622
X5.1969Y-4.8622
X6.6142Y-4.8622
X6.7126Y-4.8622
X6.7913Y-4.8622
X6.8898Y-4.8622
X3.5039Y-4.8622
X3.6024Y-4.8622
X3.6811Y-4.8622
X3.7795Y-4.8622
X4.2126Y-4.8622
X4.311Y-4.8622
X4.3898Y-4.8622
X4.4882Y-4.8622
X2.5197Y-4.8622
X2.6181Y-4.8622
X2.6969Y-4.8622
X2.7953Y-4.8622
X5.6299Y-4.8622
X5.7283Y-4.8622
X5.8071Y-4.8622
X5.9055Y-4.8622
T4
X7.2244Y-3.9835
X7.2244Y-4.1835
X7.2244Y-4.3835
X7.2244Y-4.5835
X7.2244Y-4.7835
X2.2244Y-4.3079
X2.2244Y-4.5079
T5
X4.8004Y-4.9689
X5.3177Y-4.9689
X6.4933Y-4.9689
X7.0106Y-4.9689
X3.3831Y-4.9689
X3.9004Y-4.9689
X4.0917Y-4.9689
X4.6091Y-4.9689
X2.3988Y-4.9689
X2.9161Y-4.9689
X5.5091Y-4.9689
X6.0264Y-4.9689
T6
X2.2047Y-3.7008
X2.2047Y-5.0787
X7.2441Y-3.7008
X7.2441Y-5.0787
T0
M30
